<?xml version="1.0" encoding="UTF-8"?>
<svg xmlns="http://www.w3.org/2000/svg" viewBox="0 0 1024 1024">
  <defs>
    <style>
      .cls-1 {
        fill: #e69a7f;
        opacity: .99;
      }

      .cls-2 {
        fill: #f6af90;
      }

      .cls-3 {
        fill: #444;
      }

      .cls-4 {
        fill: #f8bd9c;
      }

      .cls-5 {
        fill: #a4a3a3;
      }

      .cls-6 {
        fill: #ffcd2e;
      }

      .cls-7 {
        fill: #e34647;
      }

      .cls-8 {
        fill: #634020;
      }

      .cls-9 {
        fill: #a5a4a4;
      }

      .cls-10 {
        fill: #f4f4f4;
      }

      .cls-11 {
        fill: #528cb2;
      }
    </style>
  </defs>
  <g id="Lag_12">
    <path class="cls-2" d="M250.26,898.75h221.26v83.3c0,17.54-14.24,31.78-31.78,31.78h-157.71c-17.54,0-31.78-14.24-31.78-31.78v-83.3h0Z"/>
    <path class="cls-8" d="M250.26,976.5h221.26v5.55c0,17.54-14.24,31.78-31.78,31.78h-157.71c-17.54,0-31.78-14.24-31.78-31.78v-5.55h0Z"/>
    <rect class="cls-8" x="310.86" y="895.4" width="22.13" height="93.67" transform="translate(461.66 -43.62) rotate(26.93)"/>
    <rect class="cls-8" x="380.91" y="904.03" width="22.13" height="93.67" transform="translate(1172.08 1621.09) rotate(153.07)"/>
    <path class="cls-2" d="M553.56,900.38h221.26v83.3c0,17.54-14.24,31.78-31.78,31.78h-157.71c-17.54,0-31.78-14.24-31.78-31.78v-83.3h0Z"/>
    <path class="cls-8" d="M553.56,978.14h221.26v5.55c0,17.54-14.24,31.78-31.78,31.78h-157.71c-17.54,0-31.78-14.24-31.78-31.78v-5.55h0Z"/>
    <rect class="cls-8" x="614.16" y="897.04" width="22.13" height="93.67" transform="translate(495.29 -180.81) rotate(26.93)"/>
    <rect class="cls-8" x="684.21" y="905.67" width="22.13" height="93.67" transform="translate(1746.54 1486.82) rotate(153.07)"/>
  </g>
  <g id="Lag_7">
    <rect class="cls-1" x="158.13" y="195.47" width="728.89" height="663.53" rx="123.29" ry="123.29"/>
    <path class="cls-11" d="M887.03,865.77l-114.8,39.78c-161.25,55.88-338.05,55.88-499.3,0l-114.8-39.78V318.76l728.89,302.03v244.99Z"/>
  </g>
  <g id="Lag_13">
    <polygon class="cls-6" points="158.13 476.86 887.03 734.94 887.03 620.79 158.13 318.76 158.13 476.86"/>
  </g>
  <g id="Lag_14">
    <rect class="cls-7" x="277.07" y="1.24" width="491.01" height="275.33" rx="91.76" ry="91.76"/>
  </g>
  <g id="Lag_2">
    <path class="cls-9" d="M270.46,174.22h504.24c18.16,0,32.91,14.74,32.91,32.91v249.72c0,99.03-80.4,179.44-179.44,179.44h-211.18c-99.03,0-179.44-80.4-179.44-179.44v-249.72c0-18.16,14.74-32.91,32.91-32.91Z"/>
    <path class="cls-4" d="M768.71,186.52c-.08-53.11-45.35-96.12-101.17-96.12h-290.78c-55.82,0-101.09,43.01-101.17,96.12l-.24,161.3c-.05,35.56,20.51,68.26,53.48,85.02l22.38,11.38c15.33,7.79,28.28,19.21,37.62,33.15l8.7,12.99c18.58,27.73,50.75,44.52,85.32,44.52h78.6c34.57,0,66.74-16.79,85.32-44.52l8.7-12.99c9.34-13.94,22.3-25.36,37.62-33.15l22.38-11.38c32.97-16.77,53.53-49.46,53.48-85.02l-.24-161.3Z"/>
  </g>
  <g id="Lag_5">
    <path class="cls-10" d="M307.06,478.54l13.38,24.1c11.13,20.05,37.24,27.72,58.32,17.13l146.69-73.71c21.08-10.59,29.14-35.43,18.01-55.49l-13.38-24.1c-11.13-20.05-37.24-27.72-58.32-17.13l-146.69,73.71c-21.08,10.59-29.14,35.43-18.01,55.49Z"/>
    <path class="cls-10" d="M737.23,478.54l-13.38,24.1c-11.13,20.05-37.24,27.72-58.32,17.13l-146.69-73.71c-21.08-10.59-29.14-35.43-18.01-55.49l13.38-24.1c11.13-20.05,37.24-27.72,58.32-17.13l146.69,73.71c21.08,10.59,29.14,35.43,18.01,55.49Z"/>
  </g>
  <g id="Lag_6">
    <ellipse class="cls-3" cx="432.17" cy="292.11" rx="30.39" ry="37.69"/>
    <ellipse class="cls-3" cx="597.34" cy="292.11" rx="30.39" ry="37.69"/>
    <rect class="cls-10" x="550.27" y="186.03" width="137.51" height="50.05" rx="19.73" ry="19.73"/>
    <rect class="cls-10" x="346.62" y="186.03" width="137.51" height="50.05" rx="19.73" ry="19.73"/>
  </g>
  <g id="Lag_3">
    <ellipse class="cls-5" cx="548.52" cy="90.4" rx="34.69" ry="33"/>
    <ellipse class="cls-5" cx="503.97" cy="90.4" rx="21.63" ry="20.57"/>
  </g>
  <g id="Layer_11">
    <g id="Layer_13">
      <rect class="cls-4" x="839.52" y="301.8" width="148.5" height="337.62" rx="74.25" ry="74.25" transform="translate(1870.78 845.56) rotate(174.15)"/>
      <path class="cls-4" d="M817.69,676.6l26.04-29.64c1.69-1.93,3.52-3.61,5.44-5.05v-86.79c0-46.68,33.24-84.51,74.25-84.51h0c41.01,0,74.25,37.84,74.25,84.51v154.31c0,46.68-33.24,84.51-74.25,84.51h0c-31.26,0-57.99-22-68.94-53.13-12.33,5.44-26.85,2.51-36.79-8.82h0c-13.44-15.3-13.44-40.1,0-55.39Z"/>
      <rect class="cls-9" x="882.49" y="698.31" width="90.89" height="11.11" rx="5.56" ry="5.56" transform="translate(1855.87 1407.74) rotate(-180)"/>
      <rect class="cls-9" x="882.49" y="672.18" width="90.89" height="11.11" rx="5.56" ry="5.56" transform="translate(1855.87 1355.48) rotate(-180)"/>
      <rect class="cls-9" x="882.49" y="646.05" width="90.89" height="11.11" rx="5.56" ry="5.56" transform="translate(1855.87 1303.21) rotate(-180)"/>
    </g>
  </g>
  <g id="Layer_12">
    <rect class="cls-4" x="49.51" y="280.92" width="148.5" height="337.62" rx="74.25" ry="74.25" transform="translate(46.52 -10.28) rotate(5.85)"/>
    <path class="cls-4" d="M219.84,655.72l-26.04-29.64c-1.69-1.93-3.52-3.61-5.44-5.05v-86.79c0-46.68-33.24-84.51-74.25-84.51h0c-41.01,0-74.25,37.84-74.25,84.51v154.31c0,46.68,33.24,84.51,74.25,84.51h0c31.26,0,57.99-22,68.94-53.13,12.33,5.44,26.85,2.51,36.79-8.82h0c13.44-15.3,13.44-40.1,0-55.39Z"/>
    <rect class="cls-9" x="64.15" y="677.43" width="90.89" height="11.11" rx="5.56" ry="5.56"/>
    <rect class="cls-9" x="64.15" y="651.3" width="90.89" height="11.11" rx="5.56" ry="5.56"/>
    <rect class="cls-9" x="64.15" y="625.16" width="90.89" height="11.11" rx="5.56" ry="5.56"/>
  </g>
</svg>