<?xml version="1.0" encoding="UTF-8"?>
<svg xmlns="http://www.w3.org/2000/svg" viewBox="0 0 1024 1024">
  <defs>
    <style>
      .cls-1 {
        fill: #e69a7f;
        opacity: .99;
      }

      .cls-2 {
        fill: #f6af90;
      }

      .cls-3 {
        fill: #444;
      }

      .cls-4 {
        fill: #f8bd9c;
      }

      .cls-5 {
        fill: #a4a3a3;
      }

      .cls-6 {
        fill: #ffcd2e;
      }

      .cls-7 {
        fill: #e34647;
      }

      .cls-8 {
        fill: #634020;
      }

      .cls-9 {
        fill: #a5a4a4;
      }

      .cls-10 {
        fill: #f4f4f4;
      }

      .cls-11 {
        fill: #528cb2;
      }
    </style>
  </defs>
  <g id="Lag_12">
    <path class="cls-2" d="M250.26,863.06h221.26v83.3c0,17.54-14.24,31.78-31.78,31.78h-157.71c-17.54,0-31.78-14.24-31.78-31.78v-83.3h0Z"/>
    <path class="cls-8" d="M250.26,940.81h221.26v5.55c0,17.54-14.24,31.78-31.78,31.78h-157.71c-17.54,0-31.78-14.24-31.78-31.78v-5.55h0Z"/>
    <rect class="cls-8" x="310.86" y="859.71" width="22.13" height="93.67" transform="translate(445.49 -47.49) rotate(26.93)"/>
    <rect class="cls-8" x="380.91" y="868.34" width="22.13" height="93.67" transform="translate(1155.92 1553.58) rotate(153.07)"/>
    <path class="cls-2" d="M553.56,900.38h221.26v83.3c0,17.54-14.24,31.78-31.78,31.78h-157.71c-17.54,0-31.78-14.24-31.78-31.78v-83.3h0Z"/>
    <path class="cls-8" d="M553.56,978.14h221.26v5.55c0,17.54-14.24,31.78-31.78,31.78h-157.71c-17.54,0-31.78-14.24-31.78-31.78v-5.55h0Z"/>
    <rect class="cls-8" x="614.16" y="897.04" width="22.13" height="93.67" transform="translate(495.29 -180.81) rotate(26.93)"/>
    <rect class="cls-8" x="684.21" y="905.67" width="22.13" height="93.67" transform="translate(1746.54 1486.82) rotate(153.07)"/>
  </g>
  <g id="Layer_16">
    <rect class="cls-4" x="89.98" y="285.92" width="152.21" height="346.05" rx="74.25" ry="74.25" transform="translate(47.68 -14.55) rotate(5.85)"/>
    <path class="cls-4" d="M323.62,554.9l-39.28,3.75c-2.55.24-4.99.74-7.28,1.45l-70.34-50.83c-37.83-27.34-87.97-22.55-111.99,10.69h0c-24.02,33.24-12.82,82.35,25.01,109.68l125.07,90.37c37.83,27.34,87.97,22.55,111.99-10.69h0c18.31-25.34,16.13-59.89-2.69-87,11.63-6.8,17.76-20.29,14.4-34.99h0c-4.53-19.85-24.63-34.38-44.9-32.44Z"/>
  </g>
  <g id="Lag_7">
    <rect class="cls-1" x="158.13" y="195.47" width="728.89" height="663.53" rx="123.29" ry="123.29"/>
    <path class="cls-11" d="M887.03,865.77l-114.8,39.78c-161.25,55.88-338.05,55.88-499.3,0l-114.8-39.78V318.76l728.89,302.03v244.99Z"/>
  </g>
  <g id="Lag_13">
    <polygon class="cls-6" points="158.13 476.86 887.03 734.94 887.03 620.79 158.13 318.76 158.13 476.86"/>
  </g>
  <g id="Lag_14">
    <rect class="cls-7" x="280.09" y="27.07" width="491.01" height="275.33" rx="91.76" ry="91.76"/>
  </g>
  <g id="Lag_2">
    <path class="cls-9" d="M273.48,200.05h504.24c18.16,0,32.91,14.74,32.91,32.91v249.72c0,99.03-80.4,179.44-179.44,179.44h-211.18c-99.03,0-179.44-80.4-179.44-179.44v-249.72c0-18.16,14.74-32.91,32.91-32.91Z"/>
    <path class="cls-4" d="M771.73,212.35c-.08-53.11-45.35-96.12-101.17-96.12h-290.78c-55.82,0-101.09,43.01-101.17,96.12l-.24,161.3c-.05,35.56,20.51,68.26,53.48,85.02l22.38,11.38c15.33,7.79,28.28,19.21,37.62,33.15l8.7,12.99c18.58,27.73,50.75,44.52,85.32,44.52h78.6c34.57,0,66.74-16.79,85.32-44.52l8.7-12.99c9.34-13.94,22.3-25.36,37.62-33.15l22.38-11.38c32.97-16.77,53.53-49.46,53.48-85.02l-.24-161.3Z"/>
  </g>
  <g id="Lag_5">
    <path class="cls-10" d="M310.08,504.38l13.38,24.1c11.13,20.05,37.24,27.72,58.32,17.13l146.69-73.71c21.08-10.59,29.14-35.43,18.01-55.49l-13.38-24.1c-11.13-20.05-37.24-27.72-58.32-17.13l-146.69,73.71c-21.08,10.59-29.14,35.43-18.01,55.49Z"/>
    <path class="cls-10" d="M740.25,504.38l-13.38,24.1c-11.13,20.05-37.24,27.72-58.32,17.13l-146.69-73.71c-21.08-10.59-29.14-35.43-18.01-55.49l13.38-24.1c11.13-20.05,37.24-27.72,58.32-17.13l146.69,73.71c21.08,10.59,29.14,35.43,18.01,55.49Z"/>
  </g>
  <g id="Lag_6">
    <ellipse class="cls-3" cx="435.19" cy="317.94" rx="30.39" ry="37.69"/>
    <ellipse class="cls-3" cx="600.36" cy="317.94" rx="30.39" ry="37.69"/>
    <rect class="cls-10" x="553.29" y="211.86" width="137.51" height="50.05" rx="19.73" ry="19.73"/>
    <rect class="cls-10" x="349.65" y="211.86" width="137.51" height="50.05" rx="19.73" ry="19.73"/>
  </g>
  <g id="Lag_3">
    <ellipse class="cls-5" cx="551.54" cy="116.23" rx="34.69" ry="33"/>
    <ellipse class="cls-5" cx="507" cy="116.23" rx="21.63" ry="20.57"/>
  </g>
  <g id="Layer_12">
    <rect class="cls-4" x="829.25" y="277.32" width="148.5" height="351.93" rx="74.25" ry="74.25" transform="translate(1848.54 812.05) rotate(174.15)"/>
    <path class="cls-4" d="M723.77,600.66l39.33-3.13c2.56-.2,5.04-.14,7.42.17l60.45-62.27c32.51-33.49,82.72-37.49,112.14-8.93h0c29.43,28.56,26.93,78.87-5.58,112.36l-107.48,110.72c-32.51,33.49-82.72,37.49-112.14,8.93h0c-22.43-21.77-26.29-56.18-12.46-86.14-12.63-4.68-21.01-16.9-20.26-31.95h0c1.01-20.34,18.28-38.13,38.58-39.75Z"/>
    <rect class="cls-9" x="738.44" y="691.45" width="90.89" height="11.11" rx="5.56" ry="5.56" transform="translate(860.9 1743.13) rotate(-135.85)"/>
    <rect class="cls-9" x="756.64" y="672.7" width="90.89" height="11.11" rx="5.56" ry="5.56" transform="translate(905.22 1723.6) rotate(-135.85)"/>
    <rect class="cls-9" x="774.84" y="653.95" width="90.89" height="11.11" rx="5.56" ry="5.56" transform="translate(949.54 1704.07) rotate(-135.85)"/>
  </g>
</svg>