<?xml version="1.0" encoding="UTF-8"?>
<svg xmlns="http://www.w3.org/2000/svg" xmlns:xlink="http://www.w3.org/1999/xlink" viewBox="0 0 1024 200">
  <defs>
    <style>
      .cls-1 {
        fill: #c5d871;
      }

      .cls-2 {
        fill: #fff;
      }

      .cls-3 {
        fill: url(#Ikke-navngivet_forløb_15);
      }

      .cls-4 {
        fill: #4dbded;
      }

      .cls-5 {
        fill: #6fc8e2;
      }

      .cls-6 {
        fill: #77b82b;
      }

      .cls-7 {
        fill: url(#Ikke-navngivet_forløb_16);
      }
    </style>
    <linearGradient id="Ikke-navngivet_forløb_16" data-name="Ikke-navngivet forløb 16" x1="11.19" y1="145.94" x2="171.88" y2="145.94" gradientTransform="translate(420.91 42.86)" gradientUnits="userSpaceOnUse">
      <stop offset="0" stop-color="#4ebfef"/>
      <stop offset=".08" stop-color="#4bb0e4"/>
      <stop offset=".28" stop-color="#4693cf"/>
      <stop offset=".39" stop-color="#4589c8"/>
    </linearGradient>
    <linearGradient id="Ikke-navngivet_forløb_15" data-name="Ikke-navngivet forløb 15" x1="10.02" y1="-13.58" x2="119.17" y2="-13.58" gradientTransform="translate(498.42 8.48) rotate(90)" gradientUnits="userSpaceOnUse">
      <stop offset=".02" stop-color="#9ad7f7"/>
      <stop offset=".35" stop-color="#749ccc"/>
      <stop offset=".64" stop-color="#576fac"/>
      <stop offset=".87" stop-color="#455498"/>
      <stop offset="1" stop-color="#3f4a91"/>
    </linearGradient>
  </defs>
  <g id="Lag_1" data-name="Lag 1">
    <rect class="cls-7" x="432.1" y="-321.95" width="160.69" height="1021.5" transform="translate(701.25 -323.64) rotate(90)"/>
  </g>
  <g id="Lag_3" data-name="Lag 3">
    <rect class="cls-3" width="1024" height="108.46" transform="translate(1024 108.46) rotate(180)"/>
  </g>
  <g id="Lag_2" data-name="Lag 2">
    <path class="cls-2" d="M277.31,103.9c-1.74,0-3.41.2-4.98.55-.35-1.26-.89-2.48-1.59-3.63.52-1.2.82-2.5.82-3.88,0-5.69-4.97-10.31-11.11-10.31-3.47,0-6.56,1.48-8.6,3.79-1.29-.15-2.62-.23-3.97-.23-2.11,0-4.15.19-6.11.54-2.32-12.54-11.08-22.82-22.72-27.28-1.75-4.14-7.63-8.18-11.02-8.83-3.18-.61-7.3,1.88-9.66,5.03-2.26-1.24-4.76-1.72-6.73-.73-5.71,2.85-11.69,5.73-12.89,13.07-.09.54-.11,1.05-.08,1.55-3.42,3.93-6.01,8.61-7.5,13.76-.7-.42-1.42-.82-2.15-1.19-1.24-3.71-4.96-6.4-9.36-6.4-2.3,0-4.41.75-6.08,1.99-1.45-2.03-4.48-3.15-6.63-4.09-2.88-1.27-7.2,2.64-7.44,6.33-.35.11-.7.22-1.04.34-.38-2.36-1-4.66-1.81-6.89,3.28-1.79,5.58-4.49,4.93-7.67-2.56-12.48-9-14.11-15.38-15.38-1.98-.39-5.01-.05-8.22.8-.25-.16-.51-.3-.76-.46-1.43-7.1-9.5-15-16.01-16.45-7.77-1.73-20.8.9-22.53,8.67-.06.26-.11.52-.15.78-3.03.5-5.97,1.24-8.78,2.18-.2-.69-.42-1.37-.65-2.05,1.49-1.24,2.44-3.11,2.44-5.21,0-3.74-3.04-6.78-6.78-6.78-.42,0-.84.04-1.24.12-.34-.55-.68-1.09-1.04-1.63.53-2.53.93-4.91,1.22-6.93,1.58-11-14.28-25.18-26.18-26.89-3.35-.48-7.01-.04-10.59,1.1-3.15-8.48-11.62-14.56-21.58-14.56-12.65,0-22.9,9.79-22.9,21.88,0,1.66.2,3.28.57,4.83-19.6,9.72-32.99,29.33-32.99,51.94,0,19.62,10.09,36.99,25.57,47.59-3.59,2.17-5.72,4.87-5.72,7.79,0,7.14,12.65,12.92,28.26,12.92,9.56,0,18-2.17,23.11-5.49,1.47.51,3.24.81,5.15.81,3.71,0,6.9-1.13,8.4-2.76,3.64.99,7.83,1.56,12.3,1.56,4.72,0,9.13-.64,12.92-1.74,8.07,4.63,17.77,7.34,28.21,7.34,8.17,0,15.88-1.66,22.71-4.6-.02.16-.04.31-.04.47,0,3.63,6.12,6.58,13.67,6.58,6.34,0,11.67-2.08,13.22-4.9,4.19,1.56,8.85,2.45,13.79,2.45,5.94,0,11.5-1.28,16.29-3.49,3.49.75,7.66,1.2,12.14,1.2,4,0,7.76-.35,11-.96,4.59,2.09,9.68,3.26,15.05,3.26,7.03,0,13.58-2.01,19.14-5.46,1.6.17,3.3.26,5.05.26,6.36,0,11.94-1.21,15.08-3.02.83.06,1.67.1,2.53.1,3.32,0,6.49-.46,9.38-1.3,1.69,1.12,4.34,1.84,7.33,1.84,2.67,0,5.06-.58,6.75-1.49,1.84.52,3.85.81,5.97.81,8.68,0,15.72-4.82,15.72-10.77s-7.04-10.77-15.72-10.77ZM121.32,123.17c.85-.62,1.68-1.26,2.48-1.93.46.6.96,1.18,1.48,1.75-.23,0-.46,0-.69,0-1.12,0-2.22.07-3.26.19Z"/>
    <path class="cls-2" d="M1041.06.61c-10.3,0-20.04,1.98-28.71,5.49-3.86-5.06-9.29-8.08-13.74-4.62-8.17,6.35-18.74,7.97-18.74,17.79,0,1.45.19,2.87.54,4.22-3.17,1.3-5.4,4.41-5.4,8.05,0,2.84,1.36,5.35,3.46,6.93-.37.94-.72,1.89-1.03,2.86-2.15-.67-4.36-1.2-6.63-1.6-2.5-7.46-13.63-16.3-20.02-12.64-7.79,4.45-12.24,4.45-14.4,14.4-.26,1.19-.28,2.35-.12,3.47-11.35,5.93-20.06,15.76-24.03,27.57-1.68-.21-3.39-.32-5.13-.32-6.38,0-12.36,1.46-17.49,4-1.3-2.89-2.97-5.61-4.96-8.13.67-3.98-1.09-8.49-4.35-12.19-3.65-4.15-10.95-4.52-14.91-1.91-2.15-.85-4.38-1.55-6.69-2.11-3.48-3.27-8.67-5.61-14.86-8.22-7.33-3.09-14.46,3.09-17.74,10.88-12.98,5.55-22.58,16.26-25.35,29.09-3.37-3.16-7.9-5.09-12.88-5.09-10.41,0-18.85,8.44-18.85,18.85,0,.94.07,1.86.2,2.76-.14,0-.27-.02-.41-.02-5.71,0-16.8,7.59-15.96,14.52.69,5.66,11.93,5.4,16.85,5.4,1.5,0,2.73-.06,3.76-.22,2.84,4.1,11.24,5.54,20.7,7.8,5.73,1.37,11.15.29,15.15-1.98,1.54.62,3.45,1,5.52,1,2.68,0,5.09-.62,6.77-1.61,7.75,3.82,16.74,4.98,25.24,1.61,8.19-3.25,16.44-1.92,23.53-2.96,1.4,1.74,4.7,2.96,8.55,2.96,3.54,0,6.61-1.03,8.17-2.54,5.84,2.54,12.98,3.55,20,6.23,3.67,1.4,6.78,1.41,9.54.67,1.85,1.79,6.23,3.04,11.34,3.04,6.78,0,12.28-2.22,12.28-4.95,0-.25-.06-.49-.15-.73,6.71.83,14.16.23,21.52,2.24,13.1,3.57,27.25,5.07,37.35.17,2.17,4.13,7.23,7.02,13.13,7.02,7.88,0,14.27-5.16,14.27-11.53,0-3.49-1.93-6.61-4.96-8.72,6.11-2.56,12.57-7.22,19.63-7.22,36.36,0,65.84-24.56,65.84-54.85S1077.43.61,1041.06.61ZM928.4,124.15s.07-.05.1-.07c.03.03.07.05.1.07-.07,0-.13,0-.2,0Z"/>
    <path class="cls-4" d="M730.96,165.14c-.2.85.07,0,.16-.17-.12.22-.33.87.18-.11-.11.2-1.04,1.04-.57.63.5-.44-.11.06-.26.16-.21.14-.43.26-.64.39-.57.32-1.15.59-1.74.87.83-.4-.35.12-.64.23-.48.17-.97.32-1.47.46-.57.15-1.14.29-1.71.4-.29.05-.58.1-.87.15.75-.12.23-.04-.22,0-2.51.21-5.04.03-7.56-.07s-5.09-.21-7.63-.37-4.91-.35-7.36-.62c-.55-.06-1.1-.13-1.65-.2-1.01-.12-.3-.04-.09,0-.31-.04-.63-.09-.94-.14-1.25-.19-2.51-.4-3.75-.64-1.16-.23-2.32-.48-3.47-.76-.6-.15-1.19-.31-1.78-.48-.22-.07-.44-.14-.66-.21-.07-.02-1.46-.56-.52-.16-2.19-.94-4.08-2.42-6.28-3.35-2.74-1.16-5.68-1.48-8.62-1.68-1.3-.09-2.6-.16-3.89-.28-.09,0-.8-.1-.19-.02.7.1-.48-.09-.61-.11-.27-.05-.56-.15-.84-.18l-.42-.11c.8.26,1.45.77,1.92,1.52l.68,2.52v-.25c-1.24,1.61-2.46,3.21-3.68,4.82,3.14-.65,6.28-1.28,9.42-1.94s6.17-1.8,8.83-3.89c1.54-1.22,1.73-3.82,1.03-5.46-.75-1.77-2.58-3.13-4.57-3.07-1.58.05-3.16.1-4.74.14-.75.02-1.5.07-2.25.07-.15,0-.44-.06-.58-.02,1.3-.43,3.09,2.13,3.18,2.56l-2.3,5.65c.51-.25.48-.25-.09,0,.25-.09.51-.17.77-.24.26-.07,1.9-.59.68-.17.9-.31,2.25-.13,3.19-.16,2.52-.08,5.04-.16,7.56-.24s5.12-2.24,5-5-2.2-5.09-5-5-5.67.17-8.5.27c-3.04.1-5.93.47-8.65,1.91-2.05,1.08-2.73,3.53-2.3,5.65,1.28,6.23,9.48,4.73,14.04,4.59l-3.54-8.54c.33-.26.51-.34.05-.09-.28.15-.59.31-.87.47-.58.35.75-.23.1-.04-.32.09-.63.22-.95.32-1.18.36-2.4.6-3.61.84-2.85.59-5.7,1.17-8.55,1.76-2.04.42-3.78,2.75-3.67,4.82.12,2.25,1.23,4.25,3.29,5.26,1.67.82,3.5,1.05,5.32,1.27,1.22.15,2.44.24,3.67.31.65.04,1.3.08,1.95.13.29.02.57.05.86.08.98.08-.45-.1.16,0s1.25.22,1.87.38c.34.09,1.73.62.81.2,1.17.53,2.23,1.26,3.34,1.91,2.61,1.55,5.5,2.48,8.44,3.15,5.77,1.31,11.69,1.97,17.59,2.38,2.78.19,5.56.32,8.34.43s5.82.33,8.72.03c6.18-.66,15.1-3.35,16.75-10.29.6-2.54-.79-5.54-3.49-6.15s-5.5.77-6.15,3.49h0Z"/>
    <path class="cls-4" d="M409.52,152.62c.46.26.35.17-.33-.29-.37-.34-.61-.75-.74-1.24.12.52.11.37-.04-.47-.02.54.01.4.1-.44-.15.51-.08.39.2-.35-.26.43-.18.35.22-.23-.4.37-.35.35.16-.07-.21.14-.42.26-.65.37.62-.25.67-.27.14-.08-.24.08-.49.15-.74.21-.37.09-.75.16-1.12.22-1.16.2-2.34.29-3.49.59-1.37.36-2.71.95-3.87,1.77-.57.4-1.11.85-1.67,1.28-.44.35-.43.34.04-.03-.22.16-.45.32-.69.47-.47.3-.96.55-1.45.82-.52.24-.5.24.05,0-.26.1-.52.2-.78.28-.53.17-1.06.32-1.61.43-.27.06-.54.11-.82.15.57-.08.67-.1.3-.06-.48,0-.97.05-1.45.04-.21,0-2.01-.19-1-.04-1.27-.19-2.52-.49-3.78-.75-2.67-.54-5.35-.94-8.05-1.28-4.99-.63-10.02-.87-15.05-.72-1.65.05-3.57.89-4.32,2.48-.18.38-.41.72-.61,1.09-.31.58.62-.61.13-.18-.13.12-.24.26-.37.38-.04.04-.42.46-.53.48-.01,0,.79-.54.3-.23-.47.29-.91.6-1.4.86-.17.09-1.36.71-.73.38s-.59.22-.76.29c-1.01.36-2.04.67-3.09.93-.49.12-.98.23-1.47.33-.28.06-.57.1-.85.16-.09.02-.8.14-.19.04s-.1.01-.19.02c-.29.03-.57.06-.86.08-.57.05-1.15.08-1.72.1-1,.03-2,0-3-.08-.27-.02-1.95-.31-.8-.07-.56-.11-1.12-.2-1.68-.32-.97-.22-1.93-.5-2.87-.83-.2-.07-.4-.16-.6-.22-.72-.23.68.34,0,0-.53-.26-1.07-.51-1.6-.77-2.57-1.26-5.05-2.2-7.95-2.28-2.44-.07-4.92.3-7.34.5s-4.77.39-7.16.59-4.61.49-6.91.41c-.24,0-.48-.03-.71-.04-.73-.04.07-.08.28.05-.27-.18-1-.23-1.33-.32-.96-.25.31.08.26.14-.04.04-.66-.39-.71-.41-.47-.21.36.19.36.28,0-.04-.63-.69-.68-.75-1.63-2.06-5.39-1.83-7.07,0-2.01,2.19-1.74,4.87,0,7.07,3,3.8,8.35,4.22,12.81,3.87,5.35-.42,10.69-.92,16.03-1.31.56-.04,1.13-.08,1.69-.08.32,0,.64,0,.96.03,1.06.06.28.07.1.02.2.06,1.86.57.91.21.62.24,1.22.58,1.82.87,2.32,1.14,4.73,2.12,7.26,2.68,5.1,1.11,10.36.98,15.44-.2s11.05-3.63,13.44-8.7l-4.32,2.48c4.54-.13,9.09.04,13.6.55.48.05.97.11,1.45.17-.89-.11.6.09.84.12,1.2.18,2.4.39,3.6.62,2.42.46,4.8,1.03,7.26,1.26,4.41.42,9.24-.92,12.79-3.56.62-.46,1.2-.97,1.82-1.41-.71.5.02.04.32-.17.67-.46.2-.14-.04-.05.2-.08.41-.14.62-.2.57-.16,1.14-.27,1.72-.36,2.21-.35,4.24-.66,6.25-1.73,2.77-1.47,4.45-4.15,4.73-7.23.26-2.86-1.27-5.86-3.81-7.23-2.3-1.24-5.55-.65-6.84,1.79s-.66,5.52,1.79,6.84h0Z"/>
    <path class="cls-4" d="M671.53,183.82c.08.25.14.52.23.76l.09.39,1.62-3.92c-.45.18-.93.62-1.35.87-.5.3-.29.05.09-.02-.02,0-1.24.28-.62.19.57-.08-.37,0-.48,0-.31,0-.62,0-.92-.02-1.23-.05-2.47-.2-3.7-.1-1.56.13-3.08.44-4.6.82-.58.15-1.16.28-1.73.42-.48.12-.48.1.01.04-.3.03-.6.06-.91.07-1.22.05-2.43-.08-3.64-.2-.8-.08-.13.14.06.02-.18.11-.6-.25-.79-.19.26-.09,1.06.71.66.29-.18-.19-.39-.36-.58-.54s-.37-.36-.55-.55c-.08-.09-.65-.73-.24-.23s-.1-.17-.16-.28c-.15-.26-.44-1.05-.06-.02-.9-2.45-3.43-4.37-6.15-3.49-2.4.78-4.46,3.52-3.49,6.15,1.33,3.61,4.54,7.63,8.5,8.46s7.84.68,11.72-.3c.36-.09.72-.18,1.08-.27.15-.03,1.49-.31.86-.2-.67.11.54-.03.68-.03.46-.01.93.01,1.39.04,1.99.11,3.97.23,5.92-.31s3.82-1.67,5.37-3.01c2.21-1.92,2.18-4.93,1.33-7.5s-3.49-4.35-6.15-3.49c-2.47.8-4.37,3.49-3.49,6.15h0Z"/>
    <path class="cls-1" d="M737.56,165.92c0-3.23-12.27-5.86-27.42-5.86-3.2,0-6.26.12-9.11.33-.78-.4-1.88-.78-3.22-1.1,11.43-.28,20.23-2,20.23-4.07,0-1.12-2.54-2.13-6.67-2.87.73-.37,1.15-.8,1.15-1.24,0-1.48-4.52-2.69-10.1-2.69s-10.1,1.2-10.1,2.69c0,0,0,.01,0,.02-11.95.19-21.3,1.95-21.3,4.09,0,1.08,2.37,2.06,6.24,2.79-8.22.49-14.23,2.04-14.23,3.87,0,2.23,8.82,4.03,19.7,4.03,0,3.23,12.27,5.86,27.42,5.86,2.57,0,5.06-.08,7.42-.22,1.11.86,3.96,1.48,7.3,1.48,4.31,0,7.81-1.02,7.81-2.29,0-.43-.41-.83-1.12-1.17,3.76-1,6.01-2.27,6.01-3.66Z"/>
    <path class="cls-6" d="M736.36,164.39c0-3.13-11.88-5.67-26.53-5.67-3.09,0-6.06.11-8.82.32-.76-.39-1.81-.75-3.11-1.07,11.06-.27,19.57-1.93,19.57-3.94,0-1.08-2.46-2.06-6.45-2.78.71-.36,1.11-.77,1.11-1.2,0-1.44-4.38-2.6-9.77-2.6s-9.77,1.16-9.77,2.6c0,0,0,.01,0,.02-11.56.19-20.61,1.89-20.61,3.96,0,1.04,2.29,1.99,6.04,2.7-7.95.47-13.77,1.97-13.77,3.75,0,2.16,8.53,3.9,19.06,3.9,0,3.13,11.88,5.67,26.53,5.67,2.49,0,4.9-.07,7.18-.21,1.08.84,3.83,1.43,7.06,1.43,4.17,0,7.56-.99,7.56-2.21,0-.42-.4-.8-1.08-1.14,3.63-.97,5.81-2.2,5.81-3.54Z"/>
    <path class="cls-1" d="M412.55,149.58c0-4.35-14.93-7.87-33.35-7.87-1.61,0-3.19.03-4.74.08-1.04-1.8-4.89-3.14-9.48-3.14-2.11,0-4.06.28-5.65.76-4.12-1.68-9.6-2.71-15.62-2.71-12.81,0-23.19,4.65-23.19,10.38-8.45,0-15.3,3.03-15.3,6.78,0,.62.19,1.23.55,1.8-3,.33-5.17,1.29-5.17,2.43,0,1.41,3.35,2.55,7.49,2.55,2.1,0,3.99-.3,5.36-.77,2.12.49,4.52.77,7.08.77,3.45,0,6.63-.51,9.19-1.36,2.21,2.37,8.6,4.08,16.15,4.08,9.37,0,16.97-2.64,16.97-5.9,0-.36-.1-.71-.27-1.05,4.9.67,10.58,1.05,16.65,1.05,1.62,0,3.22-.03,4.78-.08.24,1.21,3.98,2.17,8.58,2.17s8.61-1.03,8.61-2.3c0-.53-.68-1.01-1.8-1.4,8.01-1.44,13.18-3.71,13.18-6.27Z"/>
    <path class="cls-6" d="M410.2,146.67c0-4.55-14.3-8.24-31.94-8.24-1.54,0-3.06.03-4.54.08-1-1.89-4.68-3.29-9.08-3.29-2.02,0-3.89.3-5.41.8-3.95-1.76-9.2-2.84-14.96-2.84-12.27,0-22.21,4.86-22.21,10.87-8.09,0-14.65,3.18-14.65,7.1,0,.65.19,1.29.53,1.89-2.87.35-4.95,1.35-4.95,2.54,0,1.48,3.21,2.67,7.17,2.67,2.01,0,3.83-.31,5.13-.81,2.03.51,4.33.81,6.78.81,3.3,0,6.35-.53,8.81-1.42,2.11,2.48,8.24,4.28,15.47,4.28,8.98,0,16.26-2.77,16.26-6.18,0-.38-.09-.74-.26-1.1,4.69.7,10.14,1.1,15.95,1.1,1.56,0,3.08-.03,4.58-.09.23,1.27,3.82,2.28,8.22,2.28s8.24-1.08,8.24-2.4c0-.55-.65-1.06-1.72-1.47,7.67-1.51,12.62-3.88,12.62-6.56Z"/>
    <path class="cls-1" d="M676.39,183.59c.81-.54,1.26-1.14,1.26-1.77,0-1.33-2-2.52-5.15-3.32.08-.13.12-.26.12-.39,0-1.23-3.37-2.22-7.52-2.22-3.75,0-6.85.81-7.42,1.87-5.43.64-9.27,2.21-9.27,4.06,0,1.05,1.24,2.01,3.3,2.76-.93.31-1.48.72-1.48,1.16,0,1,2.87,1.82,6.4,1.82,3,0,5.51-.59,6.21-1.38.06,0,.13,0,.19,0,1.82,0,3.56-.1,5.17-.28.83.54,2.58.85,4.58.74,2.75-.16,4.92-1.06,4.86-2-.03-.42-.5-.78-1.25-1.04Z"/>
    <path class="cls-6" d="M674.43,182.17c.73-.54,1.14-1.14,1.14-1.77,0-1.33-1.81-2.52-4.65-3.31.07-.13.11-.26.11-.39,0-1.22-3.04-2.21-6.79-2.21-3.39,0-6.19.81-6.7,1.87-4.9.64-8.37,2.21-8.37,4.05,0,1.05,1.12,2,2.98,2.75-.84.31-1.34.72-1.34,1.16,0,1,2.59,1.81,5.78,1.81,2.71,0,4.98-.59,5.6-1.38.06,0,.12,0,.18,0,1.65,0,3.22-.1,4.67-.28.75.54,2.33.85,4.14.74,2.48-.16,4.45-1.05,4.39-2-.03-.42-.45-.78-1.13-1.04Z"/>
    <path class="cls-4" d="M440.26,155.86c-.29,1.85-.19,3.39.99,4.91.62.81,1.44,1.5,2.37,1.94l.23.13c-1.7-1.14-1.98-2.99-.82-5.57-.28.24-.52.58-.75.86-.88,1.06-1.51,2.14-1.95,3.46-1.41,4.23.3,8.87,3.32,11.94,2.83,2.88,6.63,4.64,10.33,6.11,3.42,1.36,6.99,2.29,10.55,3.2l-1.19-9.14c-2.72,1.57-5.7,4.31-6.58,7.45-1.23,4.38,2.92,7.36,6.14,9.4,3.01,1.9,6.27,2.39,9.74,2.79.29.03.57.07.86.1-.87-.1-.04,0,.12.02.8.12,1.6.25,2.4.38,1.6.27,3.19.57,4.8.83,6.28,1.02,12.63,1.72,18.95,2.4,2.87.31,5.95.86,8.84.56,2.18-.23,3.92-.88,5.6-2.32.42-.36.86-.75,1.23-1.16.69-.77-.68.34-.12.07.28-.14.55-.36.82-.52.24-.14.48-.25.72-.38.98-.54-1.05.37.02-.02.52-.19,1.05-.38,1.58-.55,1.18-.38,2.37-.69,3.55-1.08,2.84-.93,5.69-2.23,7.67-4.56,1.69-1.99,2.1-5.14,0-7.07-1.86-1.71-5.26-2.13-7.07,0-.28.33-.58.62-.9.93-.59.57.88-.51-.14.06-.33.18-.65.36-.98.54-.84.47.31-.16.31-.11s-.67.26-.77.29c-1.63.59-3.33,1-4.97,1.56-2.09.71-4.04,1.6-5.79,2.96-.45.34-.87.69-1.27,1.08-.18.17-.36.35-.54.53-.62.63-.02,0,.13-.08.26-.15.92-.14.15-.08.03,0,.97-.04.39-.04s-1.16.02-1.74-.02c-4.89-.27-9.76-.92-14.62-1.51-1.19-.14-2.38-.29-3.57-.43-.57-.07-1.15-.14-1.72-.22.22.03.87.12-.15-.02-.41-.06-.82-.12-1.23-.18-2.5-.37-4.98-.85-7.47-1.25-1.62-.26-3.24-.48-4.86-.67-.29-.03-.57-.07-.86-.1-.8-.07,1.19.21-.18-.02-.57-.1-1.13-.2-1.69-.34-.28-.07-.55-.17-.83-.25-.86-.24.23.2-.21-.09-.54-.36-1.14-.64-1.69-1.01-.24-.17-.48-.34-.71-.51.4.29.3.24-.03-.03-.51-.42-1.06-.81-1.48-1.32l1.29,2.21c-.73,2.69-.79,3.47-.18,2.35.14-.22.28-.43.43-.64-.6.57-.12.17.22-.17.16-.16.64-.73.86-.79-.5.38-.53.41-.08.09.22-.14.44-.27.66-.4,3.68-2.13,2.98-8.06-1.19-9.14-3.13-.81-6.28-1.62-9.32-2.73-.41-.15-.82-.31-1.23-.47-1.35-.52.89.43-.42-.18-.66-.31-1.33-.62-1.97-.96-.73-.39-1.45-.8-2.14-1.25-.12-.08-1.03-.68-.44-.28s-.42-.36-.53-.47c-.23-.22-.45-.45-.68-.68-.81-.79.41.79-.15-.19-.08-.15-.71-1.01-.28-.39.39.57-.09-.41-.17-.61-.21-.53-.01.98,0,.06,0-.18,0-.36,0-.55.02-.39,0-.24-.07.43-.13-.13.63-1.57-.03-.15.37-.81-.46.41-.04-.01,2.01-2.03,3.1-4.77,1.94-7.53-.52-1.24-1.41-2.18-2.53-2.91-.22-.14-.44-.27-.67-.39-1.42-.75.98-.35,1.44,2.12v2.66l.03-.21c.4-2.57-.65-5.5-3.49-6.15-2.39-.54-5.72.73-6.15,3.49h0Z"/>
    <path class="cls-4" d="M526.64,189.05c1.45-.25,2.89-.51,4.34-.74.64-.11,1.29-.21,1.93-.31.32-.05.65-.1.97-.15.05,0,1.61-.22.61-.09,2.82-.36,5.66-.61,8.5-.64,5.34-.04,11.12,1.28,15.97-1.7.7-.43,1.35-.95,1.97-1.49.27-.23.52-.48.79-.72.11-.1.8-.66.3-.3-.62.45,1.72-1.08.37-.22.57-.36,1.48-.54,2.12-.73,1.14-.35,2.31-.63,3.49-.83.29-.05.59-.1.89-.14-1.03.14-.03.02.23,0,.77-.07,1.54-.1,2.32-.12,2.94-.06,5.94,0,8.8-.79,3.12-.87,5.96-2.67,7.73-5.43,1.96-3.06,2.23-7.22.39-10.39-1.72-2.96-4.84-4.4-7.95-5.4l-2.66,9.64c5.98.93,12.61,1.75,17.97-1.81,1.21-.81,2.32-1.73,3.23-2.86.36-.44.83-.87,1.13-1.34.26-.41-.74.34,0,0,.19-.09.38-.2.58-.29,1.24-.58,2.38-1.03,3.38-2.05,1.96-1.98,2.45-4.57,1.17-7.07-1.07-2.08-3.53-2.69-5.65-2.3l-.13.02c-2.58.48-4.28,3.73-3.49,6.15.89,2.76,3.39,4.01,6.15,3.49l.13-.02-5.65-2.3.09.18-.68-2.52-.02.22.68-2.52c.25-.39.58-.69.98-.9-.17.12-.35.22-.54.32-.34.18-.69.31-1.04.46-1.08.48-2.05,1.09-2.91,1.92-.66.64-1.15,1.41-1.76,2.08-.17.19-.55.73-.81.8.52-.38.56-.42.11-.1-.21.14-.43.27-.65.4-.22.12-.45.24-.68.35.55-.22.66-.27.31-.13-.43.13-.85.29-1.28.4-.25.07-1.96.47-.56.17-.42.09-.88.09-1.31.1-1.09.05-2.18,0-3.26-.1-.19-.02-2.09-.26-.99-.1-.62-.09-1.23-.18-1.85-.28-2.57-.4-5.5.65-6.15,3.49s.82,5.29,3.49,6.15c.13.04,1.27.52,1.35.46-.07.05-1.07-.54-.2-.08.21.11.42.21.63.33.15.09.29.19.44.28.58.34-.68-.6-.21-.13s-.41-.81-.13-.21c.12.26.52,1.07,0-.08.29.64-.36.08-.01-.3-.04.04,0,.46,0,.52.03.66.28-.89.01-.29-.07.16-.33.9-.04.24s-.09.04-.15.2c-.21.52.16-.34.26-.29.01,0-.46.48-.52.54-.74.78.44-.17-.07.06-.23.1-.48.25-.68.39-.57.4.78-.23.11-.03-.45.14-.88.3-1.33.41-.31.07-1.76.25-.71.16-.72.06-1.44.11-2.16.13-2.73.07-5.38.12-8.09.52-2.35.35-4.65.96-6.85,1.85-1.57.64-2.79,1.28-4.09,2.38-.38.32-.75.66-1.1,1-.68.65-.13.11.05,0-.26.16-.56.31-.82.48-.56.38.82-.22.16-.07-.24.06-.48.15-.72.21s-.5.1-.74.16c-.59.15.38-.09.38-.04-.03.21-3.09.06-3.36.05-2.29-.1-4.57-.29-6.87-.24-6.14.13-12.24,1.21-18.28,2.27-2.58.45-4.27,3.75-3.49,6.15.9,2.78,3.38,3.98,6.15,3.49h0Z"/>
    <path class="cls-1" d="M602.61,154.43c0-1.86-4.85-3.38-10.92-3.45-1.51-1.32-4.44-2.7-7.96-3.61-4.43-1.15-8.42-1.19-9.96-.24-8.61-1.77-16.29-1.65-20.08.07-1.76-.77-4.08-1.24-6.63-1.24-1.7,0-3.31.21-4.71.58-1.51-.37-3.3-.58-5.23-.58-2.94,0-5.57.49-7.34,1.27-2.35-.18-4.75-.32-7.19-.42-3-1.57-8.75-2.64-15.36-2.64-7.11,0-13.22,1.23-15.99,3-3.31-.69-7.77-.93-12.63-.58-9.34.68-16.87,3.33-17.58,6.07-1.1-.09-2.26-.14-3.46-.14-6.91,0-12.52,1.65-12.52,3.7,0,1.01,1.37,1.92,3.58,2.59-2.32,1.83-3.58,3.8-3.58,5.84,0,5.59,9.41,10.59,24.19,13.91-3.8,1.16-6.05,2.6-6.05,4.16,0,3.78,13.24,6.86,29.79,6.99,1.12,1.11,4.86,1.93,9.3,1.93,5.33,0,9.65-1.17,9.65-2.62,0-.19-.08-.38-.22-.56,7.99-1.26,13.21-3.36,13.21-5.74,0-.11-.01-.23-.04-.34,5.33-.28,10.42-.74,15.22-1.34,1.7.58,3.98.94,6.49.94,5.24,0,9.48-1.55,9.48-3.46,0-.1-.01-.19-.03-.29,4.22-1,7.98-2.14,11.16-3.4,1.12.15,2.3.23,3.52.23,7.12,0,12.89-2.7,12.89-6.02,0-1.89-1.88-3.58-4.8-4.69-.03-.56-.16-1.11-.38-1.65,8.92.98,15.79-.32,16.49-3.47.11-.48.06-.99-.12-1.51,4.53-.46,7.81-1.75,7.81-3.28Z"/>
    <path class="cls-6" d="M599.47,152.47c0-1.79-4.66-3.25-10.49-3.32-1.45-1.27-4.26-2.59-7.64-3.46-4.26-1.1-8.08-1.15-9.56-.23-8.27-1.7-15.65-1.58-19.28.07-1.69-.74-3.92-1.19-6.37-1.19-1.64,0-3.18.2-4.52.56-1.45-.35-3.17-.56-5.02-.56-2.82,0-5.35.47-7.05,1.22-2.25-.17-4.56-.3-6.91-.41-2.88-1.51-8.4-2.53-14.75-2.53-6.82,0-12.69,1.18-15.35,2.88-3.18-.66-7.46-.9-12.13-.56-8.97.65-16.2,3.19-16.88,5.82-1.05-.09-2.17-.14-3.32-.14-6.64,0-12.02,1.59-12.02,3.55,0,.97,1.31,1.84,3.44,2.48-2.23,1.76-3.44,3.65-3.44,5.61,0,5.37,9.04,10.17,23.23,13.35-3.65,1.12-5.81,2.5-5.81,3.99,0,3.63,12.72,6.59,28.61,6.71,1.07,1.07,4.67,1.85,8.93,1.85,5.12,0,9.26-1.13,9.26-2.52,0-.18-.07-.36-.21-.54,7.67-1.21,12.69-3.23,12.69-5.51,0-.11-.01-.22-.04-.33,5.11-.27,10.01-.71,14.61-1.28,1.63.56,3.82.9,6.23.9,5.03,0,9.1-1.49,9.1-3.32,0-.09-.01-.18-.03-.27,4.06-.96,7.66-2.06,10.72-3.26,1.07.14,2.21.22,3.38.22,6.84,0,12.38-2.59,12.38-5.78,0-1.82-1.8-3.44-4.61-4.5-.03-.54-.15-1.07-.36-1.59,8.56.94,15.17-.3,15.83-3.33.1-.46.06-.95-.12-1.45,4.35-.44,7.5-1.68,7.5-3.15Z"/>
  </g>
  <g id="Lag_4" data-name="Lag 4">
    <path class="cls-5" d="M344.32,50.31c-10.29,0-18.63-8.34-18.63-18.63s7.67-17.94,17.38-18.59c-.44-.03-.88-.05-1.32-.05-11.37,0-20.59,9.22-20.59,20.59s9.22,20.59,20.59,20.59c9.93,0,18.22-7.03,20.16-16.39-2.55,7.26-9.45,12.47-17.58,12.47Z"/>
  </g>
</svg>