<?xml version="1.0" encoding="UTF-8"?>
<svg xmlns="http://www.w3.org/2000/svg" xmlns:xlink="http://www.w3.org/1999/xlink" viewBox="0 0 1024 1024">
  <defs>
    <style>
      .cls-1 {
        fill: #c5d871;
      }

      .cls-2 {
        fill: #fff;
      }

      .cls-3 {
        stroke: #4dbded;
        stroke-miterlimit: 10;
        stroke-width: 2px;
      }

      .cls-3, .cls-4 {
        fill: #4dbded;
      }

      .cls-5 {
        fill: url(#Ikke-navngivet_forløb_15);
      }

      .cls-6 {
        fill: #6fc8e2;
      }

      .cls-7 {
        fill: #77b82b;
      }

      .cls-8 {
        fill: url(#Ikke-navngivet_forløb_16);
      }
    </style>
    <linearGradient id="Ikke-navngivet_forløb_15" data-name="Ikke-navngivet forløb 15" x1="211.23" y1="399.54" x2="574.57" y2="399.54" gradientTransform="translate(912.67 -148.32) rotate(90)" gradientUnits="userSpaceOnUse">
      <stop offset=".02" stop-color="#9ad7f7"/>
      <stop offset=".35" stop-color="#749ccc"/>
      <stop offset=".64" stop-color="#576fac"/>
      <stop offset=".87" stop-color="#455498"/>
      <stop offset="1" stop-color="#3f4a91"/>
    </linearGradient>
    <linearGradient id="Ikke-navngivet_forløb_16" data-name="Ikke-navngivet forløb 16" x1="-148.24" y1="557.08" x2="514.73" y2="557.08" gradientTransform="translate(330.06 135.44)" gradientUnits="userSpaceOnUse">
      <stop offset="0" stop-color="#4ebfef"/>
      <stop offset=".08" stop-color="#4bb0e4"/>
      <stop offset=".28" stop-color="#4693cf"/>
      <stop offset=".39" stop-color="#4589c8"/>
    </linearGradient>
  </defs>
  <g id="Lag_1" data-name="Lag 1">
    <rect class="cls-5" x="1.12" y="1.31" width="1024" height="361.03" transform="translate(1026.25 363.65) rotate(180)"/>
  </g>
  <g id="Lag_2" data-name="Lag 2">
    <g id="Lag_7" data-name="Lag 7">
      <path class="cls-2" d="M915.8,285.98c.58,6.81,6.11,12.38,13.64,12.38s13.64-5.54,13.64-12.38-6.63-9.61-13.64-12.38-14.25,5.25-13.64,12.38Z"/>
      <ellipse class="cls-2" cx="-12.38" cy="303.58" rx="29.06" ry="17.62"/>
      <path class="cls-2" d="M448.44,288.89c-2.86,0-5.62.32-8.19.91-.58-2.08-1.46-4.08-2.62-5.97.86-1.97,1.35-4.12,1.35-6.38,0-9.37-8.18-16.97-18.28-16.97-5.71,0-10.8,2.43-14.15,6.23-2.13-.24-4.31-.37-6.53-.37-3.47,0-6.83.31-10.05.88-3.82-20.64-18.23-37.55-37.39-44.89-2.88-6.81-12.55-13.47-18.14-14.54-5.24-1-12.02,3.09-15.89,8.28-3.72-2.04-7.83-2.82-11.07-1.2-9.39,4.69-19.24,9.42-21.21,21.52-.14.88-.18,1.73-.13,2.55-5.63,6.47-9.9,14.17-12.34,22.64-1.15-.69-2.33-1.34-3.54-1.96-2.04-6.1-8.16-10.53-15.4-10.53-3.79,0-7.25,1.23-10,3.27-2.39-3.35-7.38-5.18-10.91-6.74-4.74-2.09-11.84,4.34-12.24,10.41-.57.18-1.15.36-1.71.56-.63-3.89-1.64-7.67-2.98-11.34,5.39-2.95,9.19-7.4,8.12-12.62-4.22-20.53-14.81-23.23-25.31-25.31-3.26-.65-8.24-.08-13.53,1.31-.41-.26-.84-.5-1.26-.75-2.35-11.68-15.64-24.69-26.35-27.08-12.79-2.85-34.23,1.48-37.08,14.27-.1.43-.18.86-.25,1.28-4.99.83-9.82,2.04-14.45,3.59-.33-1.13-.69-2.25-1.06-3.37,2.45-2.05,4.02-5.12,4.02-8.57,0-6.16-4.99-11.16-11.16-11.16-.7,0-1.38.07-2.04.19-.56-.9-1.12-1.8-1.71-2.68.87-4.16,1.53-8.08,2.01-11.41,2.6-18.11-23.5-41.45-43.09-44.26-5.51-.79-11.54-.06-17.42,1.8-5.19-13.96-19.13-23.95-35.52-23.95-20.81,0-37.69,16.12-37.69,36,0,2.73.33,5.39.93,7.95-32.25,16-54.29,48.27-54.29,85.47,0,32.29,16.61,60.87,42.08,78.31-5.9,3.57-9.41,8.01-9.41,12.82,0,11.75,20.82,21.27,46.51,21.27,15.73,0,29.62-3.57,38.04-9.04,2.43.84,5.34,1.33,8.47,1.33,6.1,0,11.35-1.86,13.82-4.54,6,1.64,12.89,2.57,20.23,2.57,7.76,0,15.03-1.05,21.26-2.86,13.27,7.62,29.24,12.07,46.43,12.07,13.44,0,26.13-2.74,37.38-7.57-.04.26-.06.51-.06.77,0,5.98,10.07,10.83,22.5,10.83,10.44,0,19.21-3.42,21.75-8.06,6.89,2.57,14.57,4.03,22.69,4.03,9.77,0,18.92-2.1,26.8-5.74,5.74,1.24,12.6,1.97,19.98,1.97,6.59,0,12.76-.58,18.1-1.59,7.55,3.44,15.93,5.36,24.77,5.36,11.57,0,22.35-3.3,31.5-8.99,2.64.28,5.43.44,8.32.44,10.47,0,19.65-1.99,24.82-4.97,1.37.1,2.76.16,4.16.16,5.46,0,10.67-.76,15.44-2.14,2.78,1.84,7.15,3.03,12.06,3.03,4.39,0,8.33-.95,11.11-2.46,3.03.85,6.34,1.33,9.82,1.33,14.29,0,25.88-7.93,25.88-17.72s-11.58-17.72-25.88-17.72ZM191.75,320.61c1.39-1.03,2.76-2.08,4.07-3.18.76.99,1.58,1.95,2.43,2.88-.38,0-.76-.01-1.14-.01-1.85,0-3.65.11-5.37.31Z"/>
      <ellipse class="cls-2" cx="742.65" cy="296.25" rx="16.5" ry="9.19"/>
      <path class="cls-2" d="M1046.4,158.26c-13.75,0-26.76,2.64-38.35,7.33-5.16-6.75-12.4-10.79-18.35-6.17-10.92,8.48-25.03,10.64-25.03,23.77,0,1.94.25,3.83.71,5.64-4.23,1.73-7.22,5.89-7.22,10.75,0,3.79,1.82,7.14,4.62,9.26-.49,1.26-.96,2.53-1.37,3.82-2.87-.89-5.83-1.6-8.85-2.14-3.34-9.96-18.2-21.77-26.74-16.89-10.41,5.95-16.36,5.95-19.24,19.24-.34,1.59-.38,3.14-.16,4.63-15.16,7.92-26.79,21.05-32.09,36.82-2.24-.28-4.53-.43-6.86-.43-8.53,0-16.51,1.95-23.36,5.34-1.74-3.86-3.97-7.49-6.62-10.86.9-5.32-1.46-11.34-5.81-16.29-4.88-5.55-14.63-6.04-19.91-2.55-2.87-1.13-5.85-2.08-8.93-2.82-4.65-4.37-11.58-7.49-19.85-10.98-9.78-4.13-19.31,4.12-23.7,14.53-17.34,7.42-30.16,21.71-33.86,38.86-4.5-4.22-10.55-6.8-17.21-6.8-13.91,0-25.18,11.28-25.18,25.18,0,1.25.09,2.48.27,3.68-.18,0-.36-.03-.55-.03-7.62,0-22.44,10.13-21.32,19.39.92,7.57,15.94,7.22,22.5,7.22,2,0,3.65-.07,5.02-.29,3.79,5.48,15.01,7.4,27.65,10.42,7.65,1.82,14.9.39,20.23-2.64,2.06.83,4.6,1.33,7.38,1.33,3.58,0,6.8-.83,9.04-2.15,10.36,5.1,22.36,6.65,33.71,2.15,10.94-4.34,21.95-2.57,31.43-3.95,1.86,2.32,6.28,3.95,11.42,3.95,4.73,0,8.83-1.38,10.91-3.4,7.79,3.39,17.33,4.74,26.72,8.33,4.9,1.87,9.05,1.88,12.75.9,2.47,2.39,8.32,4.06,15.14,4.06,9.06,0,16.41-2.96,16.41-6.61,0-.33-.08-.66-.2-.98,8.96,1.1,18.91.31,28.75,2.99,17.5,4.77,36.4,6.77,49.89.23,2.9,5.51,9.66,9.38,17.54,9.38,10.52,0,19.05-6.89,19.05-15.4,0-4.66-2.57-8.83-6.62-11.65,8.17-3.42,16.79-9.64,26.22-9.64,48.57,0,87.94-32.8,87.94-73.27s-39.37-73.27-87.94-73.27ZM895.92,323.26s.09-.06.14-.09c.04.03.09.06.13.1-.09,0-.18,0-.27,0Z"/>
    </g>
    <rect class="cls-8" x="181.82" y="181.76" width="662.97" height="1021.5" transform="translate(1205.82 179.2) rotate(90)"/>
  </g>
  <g id="Lag_4" data-name="Lag 4">
    <path class="cls-4" d="M847.86,604.58c-.08.39-.57,1.36-.5,1.74-.09-.51.38-.73.05-.22-.19.3-.35.63-.55.93-.05.08-.42.57-.42.59-.09-.23.62-.75-.03-.03-.46.5-.95.98-1.46,1.42-.15.13-.38.37-.58.48,1.07-.59.02-.03-.2.12-.46.32-.94.63-1.42.93-1.23.76-2.52,1.43-3.82,2.06-.53.26-1.07.51-1.61.75-.11.05-1.47.61-.44.2-.28.11-.55.22-.83.33-1.38.54-2.78,1.02-4.2,1.45s-2.86.8-4.3,1.11c-.65.14-1.31.27-1.96.39-.36.07-.73.13-1.1.18-.13.02-1.59.2-.43.07-6.29.7-12.59.4-18.9.15-6.34-.25-12.69-.52-19.03-.89s-12.5-.84-18.73-1.51c-1.59-.17-3.19-.35-4.78-.55-.64-.08-1.27-.16-1.91-.24,1.08.14-.49-.07-.58-.08-.48-.07-.95-.13-1.43-.2-3.09-.45-6.17-.96-9.24-1.55-6.03-1.15-12.18-2.39-17.91-4.64-.28-.11-.57-.22-.85-.34.99.42-.4-.2-.49-.24-.55-.26-1.1-.53-1.64-.82-1.46-.77-2.87-1.64-4.27-2.51-2.68-1.65-5.35-3.16-8.26-4.36-6.2-2.56-13.07-3.02-19.69-3.42-1.6-.1-3.2-.19-4.8-.31-.8-.06-1.59-.13-2.39-.2-.29-.03-.58-.06-.87-.09-.15-.02-1.71-.2-1.06-.12.78.1-.63-.09-.62-.09-.43-.07-.86-.14-1.28-.21-.78-.14-1.56-.3-2.33-.48-.11-.03-2.1-.47-2.08-.57.04-.23.96.53.31.07.7.5,1.38,1.49,1.33,2.4l-3.67,4.82c7.46-1.54,14.92-3.07,22.38-4.61,6.94-1.43,13.63-3.3,19.23-7.85,1.53-1.25,1.74-3.8,1.03-5.46-.75-1.77-2.58-3.13-4.57-3.07-4.25.13-8.5.26-12.76.39-1.88.06-3.77.16-5.65.11-.97-.03,1.06.3.07,0-.07-.02-.84-.28-.89-.25.73.33.86.38.4.14l.56.46c-.37-.36-.28-.22.26.42.26.46.38.96.36,1.49l-2.48,4.32c.32-.17.63-.34.96-.5.21-.1,1.12-.42.18-.1.61-.21,1.21-.43,1.83-.61s1.25-.33,1.88-.46c.35-.07.71-.14,1.06-.2.47-.08.9-.13.17-.04,2.8-.34,5.63-.4,8.45-.49,6.29-.2,12.59-.4,18.88-.6,2.61-.08,5.12-2.24,5-5s-2.2-5.09-5-5c-6.63.21-13.25.42-19.88.63-6.39.2-12.86.59-18.58,3.73-1.39.76-2.69,2.67-2.48,4.32.24,1.85.65,3.37,1.94,4.78.98,1.07,2.19,1.73,3.54,2.24,2.06.78,4.29.77,6.46.7,5.23-.16,10.47-.32,15.7-.48l-3.54-8.54c-1.05.85.83-.52-.3.22-.34.23-.68.46-1.03.68-.58.36-1.18.69-1.79,1-.37.18-.74.36-1.11.53-1.24.57.96-.34-.33.13-.65.24-1.3.48-1.95.69-3.02.97-6.13,1.6-9.23,2.24-7.15,1.47-14.3,2.95-21.46,4.42-2.23.46-3.54,2.72-3.67,4.82-.27,4.43,3.86,6.8,7.58,7.69,3.24.78,6.58,1.19,9.9,1.48,3.05.27,6.1.4,9.15.62,1.37.1,2.74.21,4.11.36.36.04.71.08,1.07.13-1.08-.13-.11-.01.16.03.78.12,1.55.25,2.32.41,1.4.28,2.78.63,4.13,1.07.68.22,1.35.47,2.01.73-1.08-.42.28.13.4.19.41.19.81.39,1.21.6,2.8,1.46,5.39,3.27,8.14,4.8,5.79,3.22,12.22,4.96,18.65,6.37,13.36,2.94,27.02,4.43,40.65,5.35,6.66.45,13.32.75,19.99,1.02s13.37.77,20.02.19c7.52-.66,14.72-2.62,21.53-5.86,6-2.86,12.47-7.23,13.91-14.19.53-2.55-.74-5.52-3.49-6.15-2.5-.57-5.58.75-6.15,3.49h0Z"/>
    <path class="cls-4" d="M591.44,642.26c.17.09.35.2.53.28.56.25-.16.3-.31-.27.02.09,1.03,1.08.38.33s.15.43.21.46c-.41-.23-.34-1.01-.17-.39.06.24.13.47.2.71.3,1.06.02-.86.02,0,0,.41,0,.81-.01,1.22-.02.83.31-1.1-.04.04-.04.15-.07.3-.12.45-.04.15-.09.29-.14.44-.13.36-.06.2.22-.48-.15.08-.43.8-.51.94-.51.9.53-.44-.14.19-.11.11-.94,1.1-1.09,1.04-.03-.01.77-.53.27-.21-.26.17-.52.35-.78.52-.38.23-.77.44-1.16.63-.15.07-.9.42-.27.14s-.14.04-.29.1c-.97.36-1.97.64-2.97.87-4.19.97-8.58,1.02-12.67,2.43-2.31.8-4.45,1.89-6.41,3.34-1.08.8-2.14,1.63-3.2,2.47-.59.47.61-.45,0,0-.17.12-.34.26-.51.38-.51.37-1.03.74-1.57,1.08-.89.58-1.8,1.11-2.73,1.61-.44.23-.88.45-1.32.67-.25.12-.51.24-.77.36-.2.09-1.13.44-.17.08-1.99.74-3.98,1.41-6.06,1.85-.55.12-1.11.22-1.66.31-.21.03-.42.06-.63.1-.76.12.84-.07.07-.02-1.13.08-2.24.2-3.38.21s-2.19-.02-3.29-.1c-.56-.04-1.12-.12-1.67-.16-.59-.05.04.01.14.03-.48-.06-.95-.14-1.43-.22-4.85-.8-9.64-1.98-14.49-2.83-5.15-.91-10.34-1.64-15.53-2.23-11.12-1.26-22.33-1.7-33.52-1.36-1.63.05-3.59.89-4.32,2.48-.46,1.02-1.02,1.97-1.64,2.9-.49.75.04,0,.12-.13-.16.25-.39.48-.59.71-.44.51-.92,1-1.41,1.46-.36.34-.74.66-1.11.98-.68.59.02.02.13-.08-.24.2-.5.38-.76.55-.98.69-2.01,1.33-3.06,1.91s-2.04,1.06-3.09,1.53c-.23.1-.46.22-.7.31,1.03-.39.36-.15.14-.06-.65.25-1.29.51-1.95.74-2.49.9-5.03,1.67-7.61,2.32s-5.06,1.11-7.63,1.51c-1.38.21.69-.07-.17.02-.36.04-.71.09-1.07.13-.57.06-1.15.12-1.72.17-1.43.13-2.87.21-4.31.25-2.58.07-5.16.01-7.74-.2-.64-.05-1.28-.11-1.92-.18-.36-.04-.71-.08-1.07-.13.19.02,1.02.15.05,0-1.34-.2-2.68-.43-4.01-.71-2.58-.55-5.13-1.25-7.62-2.13-.61-.21-1.21-.44-1.81-.67-.33-.13-.66-.26-1-.4-.19-.07-.87-.4,0,0-1.26-.58-2.51-1.16-3.75-1.77-2.68-1.33-5.37-2.66-8.2-3.63s-5.97-1.39-9.01-1.43c-5.99-.07-12.06.78-18.02,1.26s-12.21,1-18.31,1.5c-5.58.46-11.25,1.2-16.86.85-.65-.04-1.3-.11-1.95-.18-.7-.07.97.16.28.04-.34-.06-.69-.11-1.03-.18-1.18-.23-2.32-.56-3.45-.96-.71-.25.18.17.27.12-.08.04-.82-.39-.89-.43-.49-.26-.94-.56-1.41-.85-.93-.55.59.57.09.09-.2-.19-.42-.36-.63-.54s-.4-.39-.59-.59c-.21-.22-1.02-1.25-.2-.17-.82-1.08-1.63-1.92-2.99-2.3-1.2-.33-2.79-.18-3.85.5-2.05,1.32-3.48,4.61-1.79,6.84,3.32,4.37,7.89,7.07,13.31,8.02,4.92.86,9.82.7,14.78.3,12.68-1.04,25.36-2.14,38.05-3.11,1.42-.11,2.85-.2,4.27-.22.79-.01,1.58,0,2.37.05.31.02.63.05.94.07,1.5.11-.93-.21.54.06,1.32.24,2.6.58,3.86,1.04.34.12.68.27,1.02.39.8.28-1.06-.49.22.09.67.3,1.33.61,1.99.93,5.35,2.59,10.66,5.06,16.44,6.51,11.27,2.82,23.12,2.71,34.45.3,6.01-1.27,12.02-3.19,17.49-6.02s10.24-6.84,12.74-12.34l-4.32,2.48c10.54-.32,21.1.05,31.58,1.15,1.29.13,2.58.28,3.87.44.64.08,1.29.16,1.93.24.15.02.98.13.12.01.4.05.8.11,1.2.17,2.65.37,5.29.8,7.93,1.26,5.16.91,10.25,2.22,15.44,2.97s10.62.8,15.97-.33c4.73-1,9.39-2.93,13.44-5.57.89-.58,1.74-1.2,2.58-1.85.68-.52,1.35-1.04,2.02-1.57.74-.59.14-.11,0,0,.34-.26.68-.51,1.02-.76.86-.62,1.75-1.19,2.7-1.67.13-.07.96-.45.38-.2s.26-.09.4-.14c.61-.22,1.22-.4,1.85-.57,4.37-1.14,8.96-1.15,13.27-2.55,5.25-1.71,10.27-5.21,11.69-10.84,1.3-5.1-.35-11.35-5.38-13.81-2.35-1.15-5.52-.71-6.84,1.79-1.19,2.25-.71,5.61,1.79,6.84h0Z"/>
    <path class="cls-4" d="M701.85,646.6c.38,1.1.7,2.22.87,3.37-.15-1.02-.02-.25-.05-.03.52-3.88,1.48-2.46.62-1.94-.66.41-.07.05.07-.05-.34.25-.68.5-1.03.75-.93.64-1.9,1.24-2.91,1.75-.25.13-.51.24-.76.36.18-.08.91-.32.02-.03-.63.21-1.24.4-1.89.55-.3.07-.61.11-.91.18-.77.16.74-.01-.05,0-.61,0-1.23.08-1.85.09-1.33.02-2.65-.05-3.98-.13-2.65-.17-5.3-.39-7.95-.12-5.32.53-10.32,2.43-15.59,3.18,1.08-.15-.81.05-1.04.07-.65.04-1.31.06-1.96.06-1.4,0-2.79-.06-4.18-.17-1.31-.1-2.62-.24-3.93-.39-.31-.03-.63-.07-.94-.11-.16-.02-1.05-.14-.38-.04s-.21-.04-.37-.07c-.34-.06-.68-.13-1.02-.23-.27-.07-.53-.17-.79-.25.97.27-.02-.05-.28-.21-.23-.14-.45-.3-.67-.45.57.38.27.21-.1-.11-.97-.85-1.91-1.75-2.81-2.67-.43-.44-.84-.89-1.24-1.36-.1-.12-.66-.77-.25-.28.43.52-.26-.36-.34-.47-.38-.55-.74-1.12-1.06-1.72-.13-.24-.24-.48-.36-.72.39.76.06.13-.09-.31-.85-2.47-3.47-4.36-6.15-3.49-2.45.79-4.4,3.5-3.49,6.15,1.91,5.56,6.29,10.6,11.17,13.85,2.81,1.87,6.15,2.15,9.42,2.51s6.22.64,9.34.5,6.42-.79,9.55-1.58c1.33-.33,2.65-.69,3.99-1,.74-.17,1.48-.34,2.23-.48.3-.06.6-.11.89-.16,1.46-.25-1,.06.47-.06,6.17-.52,12.41,1.18,18.48-.65,3.45-1.04,6.41-2.95,9.22-5.14,1.91-1.49,2.97-3.59,2.9-6.04-.06-1.86-.56-3.81-1.16-5.56-.85-2.47-3.47-4.36-6.15-3.49-2.44.79-4.41,3.5-3.49,6.15h0Z"/>
    <path class="cls-1" d="M857.04,604.55c0-7.95-30.15-14.39-67.35-14.39-7.85,0-15.38.29-22.39.82-1.93-.99-4.61-1.9-7.91-2.71,28.08-.69,49.69-4.9,49.69-10,0-2.74-6.25-5.22-16.38-7.04,1.8-.91,2.83-1.95,2.83-3.06,0-3.64-11.11-6.6-24.81-6.6s-24.81,2.95-24.81,6.6c0,.02,0,.03,0,.05-29.35.48-52.33,4.8-52.33,10.06,0,2.64,5.82,5.05,15.33,6.85-20.19,1.19-34.97,5-34.97,9.52,0,5.47,21.66,9.91,48.39,9.91,0,7.95,30.15,14.39,67.35,14.39,6.32,0,12.43-.19,18.23-.54,2.74,2.12,9.72,3.64,17.93,3.64,10.59,0,19.18-2.52,19.18-5.62,0-1.06-1.01-2.04-2.75-2.89,9.23-2.46,14.76-5.58,14.76-8.98Z"/>
    <path class="cls-7" d="M854.09,600.8c0-7.69-29.18-13.92-65.18-13.92-7.6,0-14.89.28-21.67.79-1.86-.96-4.46-1.84-7.65-2.62,27.17-.66,48.09-4.74,48.09-9.68,0-2.65-6.05-5.06-15.85-6.82,1.74-.88,2.74-1.89,2.74-2.96,0-3.53-10.75-6.39-24.01-6.39s-24.01,2.86-24.01,6.39c0,.01,0,.03,0,.04-28.41.46-50.64,4.64-50.64,9.73,0,2.56,5.63,4.89,14.83,6.63-19.54,1.15-33.84,4.84-33.84,9.21,0,5.3,20.97,9.59,46.83,9.59,0,7.69,29.18,13.92,65.18,13.92,6.12,0,12.03-.18,17.64-.52,2.65,2.06,9.41,3.52,17.35,3.52,10.25,0,18.56-2.43,18.56-5.44,0-1.02-.98-1.98-2.66-2.79,8.93-2.38,14.28-5.4,14.28-8.69Z"/>
    <path class="cls-1" d="M595.22,641.08c0-10.68-36.68-19.34-81.93-19.34-3.96,0-7.84.07-11.65.2-2.55-4.43-12.01-7.72-23.3-7.72-5.18,0-9.97.69-13.89,1.87-10.13-4.13-23.6-6.66-38.38-6.66-31.46,0-56.97,11.41-56.97,25.49-20.76,0-37.59,7.46-37.59,16.65,0,1.53.48,3.02,1.35,4.43-7.37.82-12.71,3.17-12.71,5.96,0,3.46,8.24,6.27,18.4,6.27,5.16,0,9.81-.72,13.16-1.89,5.2,1.2,11.11,1.89,17.39,1.89,8.48,0,16.3-1.24,22.59-3.34,5.42,5.82,21.13,10.03,39.67,10.03,23.03,0,41.7-6.49,41.7-14.5,0-.88-.24-1.75-.67-2.59,12.04,1.64,26,2.59,40.91,2.59,3.99,0,7.91-.07,11.75-.2.58,2.98,9.79,5.34,21.09,5.34s21.14-2.53,21.14-5.64c0-1.3-1.66-2.49-4.42-3.44,19.67-3.53,32.37-9.11,32.37-15.4Z"/>
    <path class="cls-7" d="M589.44,633.94c0-11.18-35.13-20.25-78.47-20.25-3.79,0-7.51.07-11.16.21-2.45-4.64-11.51-8.08-22.31-8.08-4.96,0-9.55.73-13.3,1.96-9.7-4.33-22.6-6.97-36.76-6.97-30.13,0-54.56,11.95-54.56,26.69-19.88,0-36,7.81-36,17.44,0,1.61.46,3.16,1.3,4.64-7.06.86-12.17,3.32-12.17,6.24,0,3.62,7.89,6.56,17.62,6.56,4.94,0,9.4-.76,12.6-1.98,4.98,1.26,10.64,1.98,16.65,1.98,8.12,0,15.61-1.3,21.63-3.5,5.19,6.1,20.24,10.5,37.99,10.5,22.06,0,39.94-6.8,39.94-15.19,0-.92-.23-1.83-.65-2.71,11.53,1.72,24.9,2.71,39.18,2.71,3.82,0,7.58-.07,11.26-.21.56,3.12,9.37,5.59,20.2,5.59s20.25-2.64,20.25-5.91c0-1.36-1.59-2.61-4.24-3.61,18.84-3.7,31-9.54,31-16.12Z"/>
    <path class="cls-1" d="M706.78,647.97c1.99-1.33,3.1-2.8,3.1-4.36,0-3.27-4.92-6.2-12.66-8.16.19-.31.3-.63.3-.96,0-3.01-8.27-5.45-18.48-5.45-9.22,0-16.84,1.99-18.23,4.6-13.33,1.57-22.78,5.44-22.78,9.97,0,2.58,3.05,4.94,8.12,6.79-2.27.77-3.64,1.77-3.64,2.86,0,2.46,7.04,4.46,15.72,4.46,7.38,0,13.55-1.44,15.24-3.39.16,0,.32,0,.48,0,4.48,0,8.76-.25,12.71-.69,2.04,1.33,6.34,2.1,11.26,1.81,6.75-.39,12.09-2.59,11.93-4.93-.07-1.04-1.23-1.92-3.08-2.56Z"/>
    <path class="cls-7" d="M701.95,644.47c1.8-1.33,2.8-2.8,2.8-4.34,0-3.26-4.44-6.18-11.43-8.14.17-.31.27-.63.27-.95,0-3-7.47-5.44-16.69-5.44-8.32,0-15.2,1.99-16.46,4.59-12.04,1.56-20.57,5.42-20.57,9.95,0,2.57,2.75,4.92,7.33,6.77-2.05.77-3.29,1.76-3.29,2.85,0,2.46,6.36,4.45,14.2,4.45,6.66,0,12.24-1.44,13.77-3.38.14,0,.29,0,.43,0,4.04,0,7.91-.25,11.48-.69,1.84,1.33,5.73,2.09,10.17,1.81,6.1-.39,10.92-2.59,10.77-4.91-.07-1.03-1.11-1.92-2.78-2.55Z"/>
    <path class="cls-4" d="M372.17,734.21c-.97,3.97,1.38,6.69,4.64,8.47.39.21.77.45,1.16.67.84.49-.88-.81-.21-.15.53.52-.53-.89-.58-1.09-.09-.38-.11-.92,0-1.31.35-1.17.06-.22-.13.12-.6,1.07.66-.68-.21.24-.27.29-.54.59-.8.89-4.63,5.15-5.84,12.5-3.52,19.02s7.5,11.49,13.29,15.23,12.27,6.53,18.76,8.85c7.22,2.58,14.66,4.51,22.08,6.42l-1.19-9.14c-2.83,1.59-5.48,3.65-7.67,6.05-2.34,2.57-5.46,6.29-5.47,9.96-.01,4.16,3.74,6.57,6.65,8.86,2.74,2.15,5.54,4.25,8.68,5.77s6.61,2.58,10.15,3.15c1.93.31,3.87.55,5.82.77.75.09,1.5.17,2.25.26.46.05.92.11,1.38.17.2.02,1.59.22.61.08,7.1,1,14.13,2.43,21.22,3.51,14.55,2.23,29.24,3.9,43.88,5.42,3.62.38,7.24.71,10.86.99s7.1.59,10.65.02c3.77-.6,6.58-2.71,9.23-5.34.54-.53,1.09-1.06,1.67-1.55.12-.1.39-.38.51-.42l-.49.38c.18-.13.35-.26.53-.38.99-.69,2.03-1.3,3.11-1.85.58-.3,1.46-.92,2.11-.98-.09,0-1.11.44-.27.12.42-.16.83-.33,1.26-.48,1.27-.47,2.57-.89,3.86-1.3,2.71-.84,5.46-1.59,8.15-2.48,5.73-1.9,11.51-4.51,15.46-9.26,1.67-2.01,2.12-5.13,0-7.07-1.84-1.69-5.29-2.15-7.07,0-.7.84-1.45,1.62-2.27,2.34-.88.76.03.09.01.03,0,.02-.45.33-.52.38-.52.37-1.06.72-1.62,1.05-.93.55-1.89,1.05-2.88,1.5l-.3.13c-.5.22-.4.18.29-.12-.07.08-.55.22-.61.25-.62.25-1.25.48-1.87.7-4.49,1.58-9.15,2.65-13.61,4.33-2.47.93-4.93,1.98-7.18,3.37-2.4,1.49-4.38,3.37-6.41,5.3-.26.25-.52.48-.79.72.72-.65.06-.04-.18.11-.29.18-.59.34-.9.5.93-.48.18-.09-.12,0-.32.1-.65.16-.98.25-1.22.35.69-.01-.08.03s-1.51.1-2.27.1c-3.3-.02-6.61-.36-9.9-.64-13.62-1.17-27.22-2.91-40.78-4.67-.32-.04-.64-.08-.97-.13-.08,0-1.67-.22-.6-.08-.8-.11-1.61-.22-2.41-.33-1.69-.24-3.38-.49-5.06-.75-3.3-.52-6.59-1.11-9.88-1.69s-6.74-1.17-10.13-1.64c-1.85-.26-3.7-.49-5.55-.71-.75-.09-1.5-.17-2.25-.26-.45-.05-.9-.11-1.35-.17.91.12-.14-.02-.46-.07-1.78-.27-3.55-.62-5.28-1.13-.79-.23-1.56-.52-2.33-.8s1.02.52-.21-.1c-.45-.23-.91-.44-1.36-.68-1.48-.78-2.89-1.69-4.25-2.65-.36-.25-.71-.52-1.06-.77-.86-.62.53.44-.38-.29-.69-.55-1.37-1.1-2.05-1.65s-1.32-1.06-1.95-1.63c-.07-.07-.48-.49-.51-.49.52.53.79,1.19.79,1.98.04.3,0,.58-.14.84l-.1.24c.12-.23.25-.46.38-.68.2-.34.41-.68.63-1.01s.45-.65.68-.98c.75-1.08-.66.75.19-.25,1.03-1.21,2.12-2.36,3.33-3.39.2-.17.41-.34.61-.5-.97.79.39-.26.58-.4.66-.45,1.33-.86,2.03-1.25,3.72-2.1,2.95-8.07-1.19-9.14-6.26-1.61-12.53-3.23-18.68-5.25-2.99-.98-5.95-2.06-8.85-3.27,1.02.43-.35-.16-.45-.2-.27-.12-.55-.24-.82-.37-.75-.34-1.49-.69-2.23-1.05-1.48-.72-2.94-1.48-4.37-2.29-1.27-.72-2.52-1.47-3.73-2.28-.56-.38-1.11-.78-1.66-1.17-1.07-.76.5.44-.12-.08-.36-.31-.73-.6-1.09-.91-1.01-.88-1.97-1.83-2.84-2.85-.13-.15-.92-1.21-.22-.24-.16-.22-.31-.43-.46-.65-.45-.66-.87-1.35-1.24-2.06-.17-.32-.37-.66-.48-1,.36,1.1.16.38.09.16-.18-.6-.39-1.18-.53-1.79-.06-.26-.29-.84-.22-1.1l.07.59c-.02-.18-.04-.37-.06-.56-.06-.74-.08-1.48-.03-2.22.02-.35-.07-1.17-.05.05,0-.34.13-.75.2-1.07.11-.47.21-1.37.53-1.73-.05.06-.54,1.04-.07.21.18-.32.34-.64.53-.94.07-.1.27-.51.41-.6-.42.53-.45.58-.09.16.17-.19.35-.38.52-.57,1.43-1.58,2.87-3.26,3.44-5.37.69-2.52-.02-5.27-1.83-7.14-.94-.97-2.09-1.69-3.27-2.33-.19-.11-.39-.21-.58-.32s-1.06-.75-.31-.13c.7.58.14.1.02-.04.83.95,1.26,2.1.95,3.37.62-2.54-.81-5.54-3.49-6.15s-5.49.77-6.15,3.49h0Z"/>
    <path class="cls-4" d="M575.43,806.79c6.79-1.19,13.58-2.37,20.4-3.32.15-.02.98-.13.13-.02.49-.06.98-.13,1.46-.19.81-.1,1.63-.2,2.44-.29,1.71-.2,3.42-.37,5.13-.53,3.34-.3,6.68-.51,10.03-.6,6.24-.17,12.42.4,18.65.62,5.94.21,11.92-.27,17.37-2.77,2.87-1.32,5.21-3.38,7.5-5.51.53-.49,1.05-.98,1.62-1.42-.17.13-.76.5.02.01.37-.23.73-.46,1.11-.67.25-.14.51-.27.77-.4.13-.06,1.45-.64.39-.2.77-.32,1.54-.61,2.32-.89,2.97-1.08,6.01-1.96,9.1-2.65,1.51-.33,3.02-.62,4.55-.86-.05,0,1.45-.21.71-.11s.76-.09.71-.09c.92-.11,1.84-.2,2.76-.27,6.83-.53,13.67-.02,20.47-1.05,5.95-.9,12.04-3.31,16.24-7.76,5-5.28,6.97-13.17,4-19.95-2.8-6.39-9.6-9.25-15.83-11.23l-2.66,9.64c10.45,1.63,21.55,3.34,31.76-.42,4.69-1.72,9.13-4.32,12.41-8.17,1.4-1.65,2.65-3.38,4.2-4.9.18-.18.56-.69-.11.05.14-.15.44-.3.6-.4.38-.24.77-.45,1.17-.65.87-.43,1.76-.79,2.65-1.17,2.47-1.06,4.65-2.48,6.22-4.7,1.15-1.63,1.57-3.55.98-5.48-.95-3.09-4.92-5.2-7.8-3.11-2.11,1.53-3.36,4.42-1.79,6.84,1.35,2.09,4.58,3.44,6.84,1.79l.16-.12-3.85.5.16.06-2.99-2.3v-1.88c.35-1.89.3-2.43-.15-1.61.03-.05.68-.68.29-.39-.11.08-.24.23-.33.34-.5.58.09-.4.28-.18.03.03-1.84,1.06-1.98,1.13-1.43.68-2.94,1.2-4.33,1.96-3.58,1.97-5.47,5.34-8.21,8.18-.64.67-1.34,1.26-2.04,1.86.66-.56.1-.08-.25.16-.43.3-.87.58-1.32.85-.79.48-1.61.89-2.45,1.29s.64-.23-.27.12c-.5.19-.99.38-1.5.55-1.78.6-3.59,1-5.43,1.33-.3.05-.83.29.14,0-.18.05-.41.05-.59.07-.52.06-1.05.1-1.57.14-1.14.08-2.29.12-3.43.12-2.62,0-5.24-.2-7.84-.5-.65-.07-1.31-.16-1.96-.24.1.01.7.1.11.01-.33-.05-.65-.09-.98-.14-1.38-.2-2.76-.42-4.14-.63-2.57-.4-5.5.65-6.15,3.49s.82,5.3,3.49,6.15c1.19.38,2.37.77,3.53,1.22.15.06.61.18.7.28l-.5-.21c.17.07.34.15.51.23.62.29,1.22.6,1.81.94.39.22,1.28.61,1.53.99-.05-.08-.86-.74-.16-.11.22.2.45.39.67.6s.41.43.62.65c.65.66-.03-.11-.1-.17.37.28,1,1.42,1.1,1.89-.03-.12-.34-1.06-.12-.18.07.29.17.57.24.87.13.54-.11.85.04-.09-.03.19.05.51.06.72.02.3-.21,1.56-.04,1.81-.18-.27.18-.94.03-.24-.09.42-.17.84-.28,1.26-.14.5-.26,1.13-.53,1.58.67-1.08,0-.08-.12.15-.11.22-.23.44-.36.65s-.26.42-.39.63c-.17.26-.6,1.25-.09.18-.25.52-.87.99-1.28,1.39-.28.27-.58.52-.87.78-.19.17-.75.49.09-.06-.54.36-1.07.74-1.63,1.07-.51.3-1.02.57-1.55.83-.29.14-.59.3-.89.41,1.17-.43-.11.02-.27.08-1.18.43-2.39.77-3.62,1.05-.58.13-1.16.25-1.75.35-.04,0-1.33.22-.51.09.75-.12-1.01.11-1.17.13-6.24.61-12.52.12-18.75.77s-12.78,2-18.86,4.24c-3.28,1.21-6.26,2.54-8.97,4.77-1.06.87-2.01,1.84-3.03,2.75-.21.19-.44.37-.65.57-1.01.93.78-.46-.28.22-.54.35-1.06.7-1.62,1.01-.28.15-.56.3-.84.43l-.17.08c-.51.23-.46.21.16-.05-.17.29-1.49.54-1.78.63-1.15.35-2.51.8-3.72.82,1.11-.02.46-.06.18-.03-.39.04-.77.08-1.16.11-.52.04-1.05.07-1.57.09-1.46.06-2.92.05-4.38,0-5.71-.18-11.37-.74-17.09-.67-14.87.18-29.61,2.78-44.21,5.34-2.58.45-4.27,3.75-3.49,6.15.9,2.78,3.38,3.98,6.15,3.49h0Z"/>
    <path class="cls-1" d="M764,728.77c0-4.58-11.92-8.3-26.84-8.49-3.7-3.24-10.91-6.63-19.55-8.86-10.89-2.82-20.68-2.93-24.47-.6-21.15-4.35-40.03-4.05-49.34.18-4.32-1.89-10.03-3.04-16.29-3.04-4.19,0-8.12.51-11.57,1.42-3.7-.9-8.11-1.42-12.84-1.42-7.23,0-13.69,1.21-18.03,3.13-5.77-.43-11.67-.78-17.67-1.04-7.37-3.87-21.5-6.48-37.73-6.48-17.46,0-32.48,3.03-39.28,7.38-8.13-1.69-19.08-2.3-31.04-1.43-22.95,1.67-41.45,8.17-43.19,14.9-2.7-.23-5.55-.35-8.49-.35-16.99,0-30.76,4.07-30.76,9.08,0,2.47,3.36,4.72,8.8,6.36-5.7,4.5-8.8,9.33-8.8,14.36,0,13.74,23.13,26.02,59.44,34.16-9.34,2.86-14.86,6.39-14.86,10.22,0,9.29,32.54,16.85,73.19,17.17,2.75,2.73,11.94,4.74,22.86,4.74,13.09,0,23.7-2.89,23.7-6.44,0-.47-.19-.93-.54-1.37,19.62-3.11,32.46-8.26,32.46-14.09,0-.28-.03-.56-.09-.83,13.09-.69,25.61-1.81,37.38-3.29,4.17,1.43,9.77,2.3,15.93,2.3,12.86,0,23.29-3.8,23.29-8.49,0-.24-.03-.47-.09-.7,10.38-2.46,19.61-5.27,27.42-8.35,2.75.36,5.65.56,8.65.56,17.5,0,31.68-6.62,31.68-14.79,0-4.65-4.61-8.8-11.8-11.51-.08-1.37-.39-2.73-.93-4.07,21.91,2.4,38.8-.78,40.5-8.53.26-1.19.15-2.43-.3-3.7,11.14-1.12,19.18-4.31,19.18-8.06Z"/>
    <path class="cls-7" d="M756.29,723.95c0-4.39-11.44-7.97-25.77-8.15-3.55-3.11-10.47-6.36-18.77-8.51-10.46-2.7-19.85-2.81-23.49-.57-20.31-4.18-38.44-3.89-47.37.17-4.15-1.82-9.63-2.92-15.64-2.92-4.02,0-7.8.49-11.11,1.36-3.55-.86-7.78-1.36-12.33-1.36-6.94,0-13.15,1.17-17.31,3-5.54-.41-11.2-.75-16.97-1-7.08-3.71-20.64-6.22-36.23-6.22-16.76,0-31.19,2.91-37.71,7.09-7.81-1.62-18.32-2.2-29.8-1.37-22.04,1.6-39.8,7.84-41.47,14.31-2.59-.22-5.33-.34-8.16-.34-16.31,0-29.53,3.9-29.53,8.72,0,2.38,3.22,4.53,8.45,6.1-5.47,4.32-8.45,8.96-8.45,13.79,0,13.19,22.21,24.98,57.07,32.8-8.96,2.74-14.27,6.13-14.27,9.81,0,8.92,31.24,16.18,70.28,16.48,2.64,2.62,11.46,4.55,21.95,4.55,12.57,0,22.76-2.77,22.76-6.19,0-.45-.18-.89-.52-1.32,18.84-2.98,31.17-7.93,31.17-13.53,0-.27-.03-.54-.09-.8,12.56-.67,24.59-1.74,35.89-3.16,4,1.37,9.38,2.21,15.3,2.21,12.35,0,22.36-3.65,22.36-8.16,0-.23-.03-.45-.08-.68,9.97-2.36,18.83-5.06,26.33-8.02,2.64.35,5.42.54,8.3.54,16.8,0,30.42-6.36,30.42-14.2,0-4.47-4.42-8.45-11.33-11.06-.08-1.32-.38-2.62-.89-3.9,21.03,2.3,37.26-.75,38.89-8.19.25-1.14.14-2.33-.29-3.55,10.7-1.08,18.42-4.13,18.42-7.74Z"/>
  </g>
  <g id="Lag_6" data-name="Lag 6">
    <ellipse class="cls-3" cx="140.91" cy="503.5" rx="46.41" ry="8.5"/>
    <ellipse class="cls-3" cx="111.8" cy="512" rx="18.7" ry="4.5"/>
    <ellipse class="cls-3" cx="138.38" cy="516.5" rx="18.56" ry="4.08"/>
    <ellipse class="cls-3" cx="152.58" cy="497.25" rx="20.67" ry="7.03"/>
    <ellipse class="cls-3" cx="53.49" cy="543" rx="17.58" ry="4.5"/>
    <ellipse class="cls-3" cx="46.46" cy="548.06" rx="12.52" ry="3.66"/>
    <ellipse class="cls-3" cx="880.66" cy="484.31" rx="27.97" ry="6.19"/>
    <ellipse class="cls-3" cx="860.26" cy="490.5" rx="17.25" ry="4.12"/>
    <ellipse class="cls-3" cx="886.88" cy="474.56" rx="24.75" ry="6.56"/>
    <ellipse class="cls-3" cx="915.16" cy="480.19" rx="34.5" ry="4.12"/>
    <ellipse class="cls-3" cx="908.63" cy="488.81" rx="20.62" ry="5.81"/>
    <ellipse class="cls-3" cx="948.43" cy="516.51" rx="13.08" ry="2.39"/>
    <ellipse class="cls-3" cx="951.47" cy="521.39" rx="13.78" ry="2.48"/>
    <ellipse class="cls-3" cx="964.83" cy="518.48" rx="15.33" ry="2.58"/>
    <ellipse class="cls-3" cx="201.76" cy="495.51" rx="6.42" ry="1.22"/>
    <ellipse class="cls-3" cx="204.19" cy="493.4" rx="5.2" ry=".8"/>
    <ellipse class="cls-3" cx="884.96" cy="510.13" rx="10.12" ry="1.87"/>
    <ellipse class="cls-3" cx="877.51" cy="513.07" rx="7.31" ry="1.85"/>
  </g>
  <g id="Lag_9" data-name="Lag 9">
    <path class="cls-2" d="M578.04,1012.01c0,9.79,11.58,17.72,25.87,17.72,3.48,0,6.79-.48,9.82-1.33,2.78,1.51,6.72,2.46,11.11,2.46,4.92,0,9.28-1.19,12.06-3.03,4.77,1.38,9.98,2.14,15.44,2.14,1.41,0,2.79-.07,4.16-.16,5.17,2.98,14.35,4.97,24.82,4.97,2.89,0,5.68-.15,8.32-.44,9.15,5.69,19.93,8.99,31.5,8.99,8.84,0,17.22-1.92,24.77-5.36,5.34,1.01,11.51,1.59,18.1,1.59,7.37,0,14.23-.72,19.98-1.97,7.88,3.64,17.03,5.74,26.8,5.74,8.12,0,15.8-1.45,22.69-4.03,2.54,4.64,11.32,8.06,21.75,8.06,12.43,0,22.5-4.85,22.5-10.83,0-.26-.03-.52-.06-.77,11.25,4.83,23.93,7.57,37.38,7.57,17.19,0,33.15-4.45,46.43-12.07,6.23,1.82,13.49,2.86,21.26,2.86,7.34,0,14.24-.93,20.23-2.57,2.47,2.68,7.72,4.54,13.82,4.54,3.13,0,6.04-.49,8.47-1.33,8.42,5.47,22.31,9.04,38.04,9.04,25.68,0,46.51-9.52,46.51-21.27,0-4.82-3.51-9.26-9.41-12.82,25.47-17.44,42.08-46.02,42.08-78.31,0-37.2-22.04-69.47-54.29-85.47.6-2.56.93-5.22.93-7.95,0-19.88-16.87-36-37.69-36-16.39,0-30.33,10-35.52,23.95-5.88-1.86-11.91-2.59-17.42-1.8-19.59,2.81-45.68,26.15-43.09,44.26.48,3.33,1.13,7.25,2.01,11.41-.59.88-1.15,1.78-1.71,2.68-.66-.12-1.34-.19-2.04-.19-6.16,0-11.16,4.99-11.16,11.16,0,3.44,1.56,6.52,4.02,8.57-.37,1.11-.73,2.24-1.06,3.37-4.63-1.55-9.46-2.76-14.45-3.59-.07-.43-.15-.85-.25-1.28-2.85-12.79-24.3-17.12-37.08-14.27-10.71,2.39-24,15.4-26.35,27.08-.42.25-.84.49-1.26.75-5.29-1.39-10.26-1.96-13.53-1.31-10.51,2.08-21.09,4.78-25.31,25.31-1.07,5.23,2.73,9.67,8.12,12.62-1.33,3.66-2.35,7.45-2.98,11.34-.56-.2-1.14-.38-1.71-.56-.4-6.08-7.5-12.51-12.24-10.41-3.53,1.56-8.52,3.39-10.91,6.74-2.75-2.03-6.21-3.27-10-3.27-7.23,0-13.35,4.43-15.4,10.53-1.22.62-2.4,1.27-3.54,1.96-2.44-8.47-6.71-16.17-12.34-22.64.05-.82.02-1.67-.13-2.55-1.97-12.09-11.82-16.83-21.21-21.52-3.24-1.62-7.35-.83-11.07,1.2-3.87-5.2-10.66-9.28-15.89-8.28-5.59,1.07-15.25,7.72-18.14,14.54-19.16,7.34-33.57,24.25-37.39,44.89-3.22-.57-6.58-.88-10.05-.88-2.22,0-4.4.13-6.53.37-3.35-3.8-8.45-6.23-14.15-6.23-10.1,0-18.28,7.6-18.28,16.97,0,2.26.48,4.41,1.35,6.38-1.16,1.89-2.04,3.89-2.62,5.97-2.58-.59-5.33-.91-8.19-.91-14.29,0-25.88,7.93-25.88,17.72ZM855.24,1025.7c-.38,0-.76,0-1.14.01.85-.94,1.68-1.89,2.43-2.88,1.31,1.1,2.68,2.15,4.07,3.18-1.72-.2-3.52-.31-5.37-.31Z"/>
    <path class="cls-2" d="M-151.03,889.27c-8.63,39.53,22.83,79.98,70.28,90.34,9.21,2.01,16.31,9.93,23.56,15.01-4.56,1.89-7.96,5.42-8.96,9.97-1.81,8.31,5.05,16.86,15.33,19.11,7.7,1.68,15.13-.65,19.14-5.42,11.78,9.27,30.68,11.34,48.79,10.42,10.18-.52,19.73,2.38,28.72,3.21-.18.29-.33.59-.4.91-.78,3.57,5.77,8.02,14.62,9.96,6.66,1.46,12.73,1.06,15.66-.74,3.4,1.75,7.46,2.63,12.64,1.84,9.93-1.5,19.54-.79,27.88-2.44,1.61,2.42,5.32,4.64,9.94,5.65,5.03,1.1,9.69.44,12.01-1.43,8.96,3.38,20.1,4,29.87,10.57,10.13,6.82,22.18,7.86,33.39,5.09,1.91,1.77,4.88,3.26,8.38,4.03,2.71.59,5.3.65,7.49.27,4.57,4.1,11.34,7.05,19.2,6.9,12.99-.25,24.36.27,29.23-4.28,1.29.5,2.89.93,4.85,1.35,6.41,1.4,21.01,4.94,23.52-2.25,3.07-8.81-9.24-21.87-16.69-23.5-.18-.04-.36-.06-.54-.09.43-1.14.78-2.32,1.05-3.54,2.97-13.59-5.64-27.01-19.23-29.98-6.5-1.42-12.96-.18-18.26,2.98.04-17.54-9.44-34.24-24.79-45.19-2.06-11.1-9.61-21.2-20.05-19.25-8.82,1.65-16.26,3.22-21.73,6.49-3.17.07-6.28.35-9.33.85-4.41-4.53-14.04-6.14-20-1.76-5.31,3.91-8.89,9.28-9.15,14.67-3.3,2.72-6.26,5.8-8.78,9.2-5.97-4.77-13.35-8.38-21.68-10.2-2.28-.5-4.55-.84-6.79-1.04-1.82-16.54-10.38-31.85-23.5-42.82.53-1.41.83-2.93.83-4.56.02-13.6-5.79-14.87-14.69-22.9-7.3-6.59-24.34,1.77-29.73,10.79-3.07-.12-6.11-.06-9.1.2-.13-1.35-.31-2.69-.52-4.02,3.19-1.47,5.69-4.36,6.49-8.06,1.04-4.75-.99-9.44-4.76-12.04.84-1.67,1.49-3.46,1.9-5.36,2.8-12.82-10.53-17.94-19.39-28.56-4.83-5.79-12.76-3.39-19.25,2.11-10.32-7.05-22.47-12.41-35.91-15.34-47.45-10.36-92.91,13.29-101.54,52.82ZM62.07,1029.71c.05-.02.1-.04.15-.07.04.04.08.08.11.12-.09-.02-.18-.03-.26-.05Z"/>
    <path class="cls-6" d="M281.05,127.04c-25.13,0-45.5-20.37-45.5-45.5s18.73-43.8,42.43-45.38c-1.07-.07-2.14-.11-3.23-.11-27.77,0-50.28,22.51-50.28,50.28s22.51,50.28,50.28,50.28c24.25,0,44.49-17.17,49.23-40.02-6.22,17.73-23.09,30.44-42.93,30.44Z"/>
  </g>
</svg>