<?xml version="1.0" encoding="UTF-8"?>
<svg xmlns="http://www.w3.org/2000/svg" viewBox="0 0 1024 1024">
  <defs>
    <style>
      .cls-1 {
        fill: #e69a7f;
        opacity: .99;
      }

      .cls-2 {
        fill: #f6af90;
      }

      .cls-3 {
        fill: #444;
      }

      .cls-4 {
        fill: #f8bd9c;
      }

      .cls-5 {
        fill: #a4a3a3;
      }

      .cls-6 {
        fill: #ffcd2e;
      }

      .cls-7 {
        fill: #e34647;
      }

      .cls-8 {
        fill: #634020;
      }

      .cls-9 {
        fill: #a5a4a4;
      }

      .cls-10 {
        fill: #f4f4f4;
      }

      .cls-11 {
        fill: #528cb2;
      }
    </style>
  </defs>
  <g id="Lag_12">
    <path class="cls-2" d="M250.26,898.75h221.26v83.3c0,17.54-14.24,31.78-31.78,31.78h-157.71c-17.54,0-31.78-14.24-31.78-31.78v-83.3h0Z"/>
    <path class="cls-8" d="M250.26,976.5h221.26v5.55c0,17.54-14.24,31.78-31.78,31.78h-157.71c-17.54,0-31.78-14.24-31.78-31.78v-5.55h0Z"/>
    <rect class="cls-8" x="310.86" y="895.4" width="22.13" height="93.67" transform="translate(461.66 -43.62) rotate(26.93)"/>
    <rect class="cls-8" x="380.91" y="904.03" width="22.12" height="93.67" transform="translate(1172.08 1621.09) rotate(153.07)"/>
    <path class="cls-2" d="M553.56,863.06h221.26v83.3c0,17.54-14.24,31.78-31.78,31.78h-157.71c-17.54,0-31.78-14.24-31.78-31.78v-83.3h0Z"/>
    <path class="cls-8" d="M553.56,940.81h221.26v5.55c0,17.54-14.24,31.78-31.78,31.78h-157.71c-17.54,0-31.78-14.24-31.78-31.78v-5.55h0Z"/>
    <rect class="cls-8" x="614.16" y="859.71" width="22.13" height="93.67" transform="translate(478.38 -184.86) rotate(26.93)"/>
    <rect class="cls-8" x="684.21" y="868.34" width="22.13" height="93.67" transform="translate(1729.63 1416.21) rotate(153.07)"/>
  </g>
  <g id="Layer_14">
    <rect class="cls-4" x="808.39" y="287.6" width="152.21" height="346.05" rx="74.25" ry="74.25" transform="translate(1811.36 828.62) rotate(174.15)"/>
    <path class="cls-4" d="M726.95,556.58l39.28,3.75c2.55.24,4.99.74,7.28,1.45l70.34-50.83c37.83-27.34,87.97-22.55,111.99,10.69h0c24.02,33.24,12.82,82.35-25.01,109.68l-125.07,90.37c-37.83,27.34-87.97,22.55-111.99-10.69h0c-18.31-25.34-16.13-59.89,2.69-87-11.63-6.8-17.76-20.29-14.4-34.99h0c4.53-19.85,24.63-34.38,44.9-32.44Z"/>
    <rect class="cls-9" x="769.81" y="691.26" width="90.89" height="11.11" rx="5.56" ry="5.56" transform="translate(1185.55 1703.34) rotate(-150.72)"/>
    <rect class="cls-9" x="782.59" y="668.47" width="90.89" height="11.11" rx="5.56" ry="5.56" transform="translate(1220.63 1666.91) rotate(-150.72)"/>
    <rect class="cls-9" x="795.37" y="645.68" width="90.89" height="11.11" rx="5.56" ry="5.56" transform="translate(1255.7 1630.49) rotate(-150.72)"/>
  </g>
  <g id="Lag_7">
    <rect class="cls-1" x="158.13" y="195.47" width="728.89" height="663.53" rx="123.29" ry="123.29"/>
    <path class="cls-11" d="M887.03,865.77l-114.8,39.78c-161.25,55.88-338.05,55.88-499.3,0l-114.8-39.78V318.76l728.89,302.03v244.99Z"/>
  </g>
  <g id="Lag_13">
    <polygon class="cls-6" points="158.13 476.86 887.03 734.94 887.03 620.79 158.13 318.76 158.13 476.86"/>
  </g>
  <g id="Lag_14">
    <rect class="cls-7" x="277.07" y="27.07" width="491.01" height="275.33" rx="91.76" ry="91.76"/>
  </g>
  <g id="Lag_2">
    <path class="cls-9" d="M270.46,200.05h504.24c18.16,0,32.91,14.74,32.91,32.91v249.72c0,99.03-80.4,179.44-179.44,179.44h-211.18c-99.03,0-179.44-80.4-179.44-179.44v-249.72c0-18.16,14.74-32.91,32.91-32.91Z"/>
    <path class="cls-4" d="M768.71,212.35c-.08-53.11-45.35-96.12-101.17-96.12h-290.78c-55.82,0-101.09,43.01-101.17,96.12l-.24,161.3c-.05,35.56,20.51,68.26,53.48,85.02l22.38,11.38c15.33,7.79,28.28,19.21,37.62,33.15l8.7,12.99c18.58,27.73,50.75,44.52,85.32,44.52h78.6c34.57,0,66.74-16.79,85.32-44.52l8.7-12.99c9.34-13.94,22.3-25.36,37.62-33.15l22.38-11.38c32.97-16.77,53.53-49.46,53.48-85.02l-.24-161.3Z"/>
  </g>
  <g id="Lag_5">
    <path class="cls-10" d="M307.06,504.38l13.38,24.1c11.13,20.05,37.24,27.72,58.32,17.13l146.69-73.71c21.08-10.59,29.14-35.43,18.01-55.49l-13.38-24.1c-11.13-20.05-37.24-27.72-58.32-17.13l-146.69,73.71c-21.08,10.59-29.14,35.43-18.01,55.49Z"/>
    <path class="cls-10" d="M737.23,504.38l-13.38,24.1c-11.13,20.05-37.24,27.72-58.32,17.13l-146.69-73.71c-21.08-10.59-29.14-35.43-18.01-55.49l13.38-24.1c11.13-20.05,37.24-27.72,58.32-17.13l146.69,73.71c21.08,10.59,29.14,35.43,18.01,55.49Z"/>
  </g>
  <g id="Lag_6">
    <ellipse class="cls-3" cx="432.17" cy="317.94" rx="30.39" ry="37.69"/>
    <ellipse class="cls-3" cx="597.34" cy="317.94" rx="30.39" ry="37.69"/>
    <rect class="cls-10" x="550.27" y="211.86" width="137.51" height="50.05" rx="19.73" ry="19.73"/>
    <rect class="cls-10" x="346.62" y="211.86" width="137.51" height="50.05" rx="19.73" ry="19.73"/>
  </g>
  <g id="Lag_3">
    <ellipse class="cls-5" cx="548.52" cy="116.23" rx="34.69" ry="33"/>
    <ellipse class="cls-5" cx="503.97" cy="116.23" rx="21.63" ry="20.57"/>
  </g>
  <g id="Layer_12">
    <rect class="cls-4" x="48.78" y="280.88" width="148.5" height="351.93" rx="74.25" ry="74.25" transform="translate(47.24 -10.17) rotate(5.85)"/>
    <path class="cls-4" d="M302.77,604.21l-39.33-3.13c-2.56-.2-5.04-.14-7.42.17l-60.45-62.27c-32.51-33.49-82.72-37.49-112.14-8.93h0c-29.43,28.56-26.93,78.87,5.58,112.36l107.48,110.72c32.51,33.49,82.72,37.49,112.14,8.93h0c22.43-21.77,26.29-56.18,12.46-86.14,12.63-4.68,21.01-16.9,20.26-31.95h0c-1.01-20.34-18.28-38.13-38.58-39.75Z"/>
    <rect class="cls-9" x="197.2" y="695.01" width="90.89" height="11.11" rx="5.56" ry="5.56" transform="translate(-419.41 366.88) rotate(-44.15)"/>
    <rect class="cls-9" x="179" y="676.26" width="90.89" height="11.11" rx="5.56" ry="5.56" transform="translate(-411.49 348.9) rotate(-44.15)"/>
    <rect class="cls-9" x="160.8" y="657.51" width="90.89" height="11.11" rx="5.56" ry="5.56" transform="translate(-403.57 330.93) rotate(-44.15)"/>
  </g>
</svg>