<?xml version="1.0" encoding="UTF-8"?>
<svg xmlns="http://www.w3.org/2000/svg" viewBox="0 0 1024 1024">
  <defs>
    <style>
      .cls-1 {
        fill: #f6af90;
      }

      .cls-2 {
        fill: #444;
      }

      .cls-3 {
        fill: #888989;
      }

      .cls-4 {
        fill: #f8bd9c;
      }

      .cls-5 {
        fill: #f5b199;
      }

      .cls-6 {
        fill: #ffcd2e;
      }

      .cls-7 {
        fill: #e34647;
      }

      .cls-8 {
        fill: #634020;
      }

      .cls-9 {
        fill: #a5a4a4;
      }

      .cls-10 {
        fill: #f4f4f4;
      }

      .cls-11 {
        fill: #bf3e44;
      }

      .cls-12 {
        fill: #528cb2;
      }
    </style>
  </defs>
  <g id="Lag_12" data-name="Lag 12">
    <path class="cls-1" d="M250.26,898.75h221.26v83.3c0,17.54-14.24,31.78-31.78,31.78h-157.71c-17.54,0-31.78-14.24-31.78-31.78v-83.3h0Z"/>
    <path class="cls-8" d="M250.26,976.5h221.26v5.55c0,17.54-14.24,31.78-31.78,31.78h-157.71c-17.54,0-31.78-14.24-31.78-31.78v-5.55h0Z"/>
    <rect class="cls-8" x="310.86" y="895.4" width="22.13" height="93.67" transform="translate(461.66 -43.62) rotate(26.93)"/>
    <rect class="cls-8" x="380.91" y="904.03" width="22.12" height="93.67" transform="translate(1172.08 1621.09) rotate(153.07)"/>
    <path class="cls-1" d="M553.56,862.27h221.26v83.3c0,17.54-14.24,31.78-31.78,31.78h-157.71c-17.54,0-31.78-14.24-31.78-31.78v-83.3h0Z"/>
    <path class="cls-8" d="M553.56,940.02h221.26v5.55c0,17.54-14.24,31.78-31.78,31.78h-157.71c-17.54,0-31.78-14.24-31.78-31.78v-5.55h0Z"/>
    <rect class="cls-8" x="614.16" y="858.93" width="22.13" height="93.67" transform="translate(478.03 -184.95) rotate(26.93)"/>
    <rect class="cls-8" x="684.21" y="867.55" width="22.13" height="93.67" transform="translate(1729.27 1414.73) rotate(153.07)"/>
  </g>
  <g id="Lag_2" data-name="Lag 2">
    <path class="cls-9" d="M270.46,174.22h504.24c18.16,0,32.91,14.74,32.91,32.91v249.72c0,99.03-80.4,179.44-179.44,179.44h-211.18c-99.03,0-179.44-80.4-179.44-179.44v-249.72c0-18.16,14.74-32.91,32.91-32.91Z"/>
    <path class="cls-4" d="M768.71,186.52c-.08-53.11-45.35-96.12-101.17-96.12h-290.78c-55.82,0-101.09,43.01-101.17,96.12l-.24,161.3c-.05,35.56,20.51,68.26,53.48,85.02l22.38,11.38c15.33,7.79,28.28,19.21,37.62,33.15l8.7,12.99c18.58,27.73,50.75,44.52,85.32,44.52h78.6c34.57,0,66.74-16.79,85.32-44.52l8.7-12.99c9.34-13.94,22.3-25.36,37.62-33.15l22.38-11.38c32.97-16.77,53.53-49.46,53.48-85.02l-.24-161.3Z"/>
  </g>
  <g id="Lag_14" data-name="Lag 14">
    <rect class="cls-7" x="277.07" y="1.24" width="491.01" height="275.33" rx="91.76" ry="91.76"/>
    <rect class="cls-11" x="276.64" y="116.75" width="491.01" height="275.33" rx="91.76" ry="91.76"/>
  </g>
  <g id="Lag_5" data-name="Lag 5">
    <path class="cls-10" d="M307.06,478.54l13.38,24.1c11.13,20.05,37.24,27.72,58.32,17.13l146.69-73.71c21.08-10.59,29.14-35.43,18.01-55.49l-13.38-24.1c-11.13-20.05-37.24-27.72-58.32-17.13l-146.69,73.71c-21.08,10.59-29.14,35.43-18.01,55.49Z"/>
    <path class="cls-10" d="M737.23,478.54l-13.38,24.1c-11.13,20.05-37.24,27.72-58.32,17.13l-146.69-73.71c-21.08-10.59-29.14-35.43-18.01-55.49l13.38-24.1c11.13-20.05,37.24-27.72,58.32-17.13l146.69,73.71c21.08,10.59,29.14,35.43,18.01,55.49Z"/>
  </g>
  <g id="Lag_6" data-name="Lag 6">
    <ellipse class="cls-2" cx="432.17" cy="292.11" rx="30.39" ry="37.69"/>
    <ellipse class="cls-2" cx="597.34" cy="292.11" rx="30.39" ry="37.69"/>
  </g>
  <g id="Layer_12" data-name="Layer 12">
    <rect class="cls-1" x="49.51" y="280.92" width="148.5" height="337.62" rx="74.25" ry="74.25" transform="translate(241.44 -1.63) rotate(30)"/>
    <path class="cls-1" d="M221.49,447.03l-32.25,22.73c-2.1,1.48-3.96,3.11-5.6,4.87l-86.29-9.27c-46.41-4.98-87.58,24.03-91.96,64.8h0c-4.38,40.77,29.69,77.87,76.1,82.85l153.42,16.48c46.41,4.98,87.58-24.03,91.96-64.8h0c3.34-31.08-15.68-60.01-45.47-74.22,6.72-11.67,5.36-26.42-4.84-37.52h0c-13.77-15-38.43-17.64-55.08-5.92Z"/>
  </g>
  <g id="Lag_7" data-name="Lag 7">
    <rect class="cls-4" x="158.13" y="195.47" width="728.89" height="663.53" rx="123.29" ry="123.29"/>
    <g id="Lag_16" data-name="Lag 16">
      <rect class="cls-5" x="159.06" y="434.61" width="726.75" height="226.69" rx="54.66" ry="54.66"/>
    </g>
    <path class="cls-12" d="M887.03,865.77l-114.8,39.78c-161.25,55.88-338.05,55.88-499.3,0l-114.8-39.78V318.76l274.04,113.55,454.85,188.48v244.99Z"/>
  </g>
  <g id="Lag_13" data-name="Lag 13">
    <polygon class="cls-6" points="158.13 476.86 887.03 734.94 887.03 620.79 158.13 318.76 158.13 476.86"/>
  </g>
  <g id="Layer_13" data-name="Layer 13">
    <rect class="cls-1" x="818.58" y="291.68" width="148.5" height="337.62" rx="74.25" ry="74.25" transform="translate(1886.59 607.66) rotate(161.14)"/>
    <path class="cls-1" d="M817.69,680.6l26.04-29.64c1.69-1.93,3.52-3.61,5.44-5.05v-86.79c0-46.68,33.24-84.51,74.25-84.51h0c41.01,0,74.25,37.84,74.25,84.51v154.31c0,46.68-33.24,84.51-74.25,84.51h0c-31.26,0-57.99-22-68.94-53.13-12.33,5.44-26.85,2.51-36.79-8.82h0c-13.44-15.3-13.44-40.1,0-55.39Z"/>
  </g>
  <g id="Lag_19" data-name="Lag 19">
    <circle class="cls-3" cx="559.89" cy="175.54" r="44.44"/>
    <circle class="cls-3" cx="443.72" cy="194.54" r="33.31"/>
    <circle class="cls-9" cx="559.56" cy="208.46" r="39.81"/>
    <circle class="cls-9" cx="502.4" cy="188.59" r="57.49"/>
  </g>
</svg>