<?xml version="1.0" encoding="UTF-8"?>
<svg xmlns="http://www.w3.org/2000/svg" viewBox="0 0 1024 1024">
  <defs>
    <style>
      .cls-1 {
        fill: #80be42;
      }

      .cls-2 {
        fill: #87c540;
      }
    </style>
  </defs>
  <g id="Layer_9">
    <path class="cls-2" d="M499.83,0h524.17v1024H0V499.83C0,223.97,223.97,0,499.83,0Z"/>
  </g>
  <g id="Layer_7">
    <path class="cls-1" d="M732.5,616.88c12.83,44.56,115.44,14.76,102.61-29.8-12.83-44.56-121.36-107.05-159.75-96-38.39,11.05,44.31,81.24,57.13,125.8Z"/>
    <path class="cls-1" d="M758.42,595.31c-5.96,41.32,74.86,52.99,80.82,11.66,5.96-41.32,2.17-143.02-20.15-146.24-22.32-3.22-54.71,93.25-60.68,134.58Z"/>
    <path class="cls-1" d="M143,696.41c3.85,26.69-48.35,34.23-52.2,7.53-3.85-26.69-1.4-92.38,13.01-94.46,14.42-2.08,35.34,60.23,39.19,86.92Z"/>
    <path class="cls-1" d="M142.56,715.02c-28.96,25.64-63.92-13.85-34.96-39.49,28.96-25.64,106.23-78.28,115.88-67.37,9.66,10.91-51.96,81.22-80.92,106.86Z"/>
    <path class="cls-1" d="M547.2,214.83c-4.63,32.11,58.17,41.18,62.81,9.06,4.63-32.11,1.69-111.14-15.66-113.64-17.34-2.5-42.52,72.46-47.15,104.57Z"/>
    <path class="cls-1" d="M507.99,216.26c14.52,44.21,74.81,24.4,60.29-19.81-14.52-44.21-62.85-145.78-79.49-140.31-16.65,5.47,4.68,115.9,19.21,160.11Z"/>
    <path class="cls-1" d="M849.13,287c7.51,26.1,67.62,8.65,60.11-17.46-7.51-26.1-71.09-62.71-93.58-56.24-22.49,6.47,25.95,47.59,33.47,73.69Z"/>
    <path class="cls-1" d="M869.02,275.55c-3.88,26.89,48.7,34.47,52.58,7.59,3.88-26.89,1.41-93.05-13.11-95.14s-35.6,60.67-39.48,87.56Z"/>
    <path class="cls-1" d="M524.33,693.02c-3.44,23.8,43.12,30.52,46.56,6.72,3.44-23.8,1.25-82.38-11.61-84.24s-31.51,53.71-34.95,77.52Z"/>
    <path class="cls-1" d="M524.72,709.61c25.83,22.87,57.01-12.35,31.18-35.22-25.83-22.87-94.73-69.81-103.34-60.08-8.61,9.73,46.33,72.43,72.16,95.3Z"/>
    <path class="cls-1" d="M324.95,994.81c-8.92,30.98-80.25,10.26-71.33-20.72,8.92-30.98,84.36-74.42,111.05-66.73,26.69,7.68-30.8,56.47-39.72,87.45Z"/>
    <path class="cls-1" d="M301.1,981.27c4.62,32.04-58.05,41.09-62.67,9.05-4.62-32.04-1.68-110.9,15.62-113.4,17.31-2.5,42.43,72.31,47.05,104.36Z"/>
    <path class="cls-1" d="M868.96,963.49c4.63,32.11-58.17,41.18-62.81,9.06-4.63-32.11-1.69-111.14,15.66-113.64,17.34-2.5,42.52,72.46,47.15,104.57Z"/>
    <path class="cls-1" d="M908.16,964.92c-14.52,44.21-74.81,24.4-60.29-19.81,14.52-44.21,62.85-145.78,79.49-140.31,16.65,5.47-4.68,115.9-19.21,160.11Z"/>
    <path class="cls-1" d="M257.94,458.01c-8.8,30.58-79.23,10.13-70.42-20.45,8.8-30.58,83.29-73.47,109.64-65.89,26.35,7.58-30.41,55.75-39.21,86.34Z"/>
    <path class="cls-1" d="M240.15,443.21c4.09,28.36-51.38,36.37-55.47,8.01-4.09-28.36-1.49-98.15,13.83-100.36,15.32-2.21,37.55,64,41.64,92.36Z"/>
  </g>
</svg>