<?xml version="1.0" encoding="UTF-8"?>
<svg xmlns="http://www.w3.org/2000/svg" viewBox="0 0 1024.01 1024">
  <defs>
    <style>
      .cls-1 {
        fill: #603a16;
      }

      .cls-2 {
        fill: #412710;
      }

      .cls-3 {
        fill: #80be42;
      }

      .cls-4 {
        fill: #87c540;
      }

      .cls-5 {
        fill: #674518;
      }
    </style>
  </defs>
  <g id="Layer_3">
    <rect class="cls-1" x=".02" y="559.12" width="1023.98" height="464.88"/>
  </g>
  <g id="Layer_5">
    <g>
      <path class="cls-2" d="M948.83,582.88c-53.75,15.6-75.43,103.68-48.42,196.75,23.31,80.31,75.25,138.08,123.59,142.38v-316.88c-24.38-20.39-50.96-29.27-75.17-22.25Z"/>
      <path class="cls-2" d="M71.06,723.15C56.22,672,29.76,630,.02,605.12v316.88c7.67.68,15.26.03,22.62-2.11,53.75-15.6,75.43-103.68,48.42-196.75Z"/>
    </g>
    <path class="cls-2" d="M180.34,753.89c47.83,21.06,88.09,110.22,50.65,119.81-51.55,13.21-74.74,64.61-122.57,43.56-47.83-21.06-70.51-74.7-50.65-119.81,19.86-45.11,74.74-64.61,122.57-43.56Z"/>
    <path class="cls-2" d="M338.22,781.63c-17.21,46.02,39.46,72.64,78.12,124.19,24.89,33.19,123.22,3.54,140.43-42.48,17.21-46.02-17.77-101.62-78.12-124.19-60.35-22.56-123.22-3.54-140.43,42.48Z"/>
    <ellipse class="cls-2" cx="320.4" cy="818.53" rx="100.05" ry="94.27" transform="translate(-268.72 166.16) rotate(-20.71)"/>
    <path class="cls-2" d="M874.15,749.55c-47.83,21.06-88.09,110.22-50.65,119.81,51.55,13.21,74.74,64.61,122.57,43.56,47.83-21.06,70.51-74.7,50.65-119.81-19.86-45.11-74.74-64.61-122.57-43.56Z"/>
    <ellipse class="cls-2" cx="608.47" cy="814.18" rx="94.27" ry="100.05" transform="translate(-368.27 1095.46) rotate(-69.29)"/>
    <ellipse class="cls-2" cx="767.67" cy="848.68" rx="88" ry="52.44"/>
  </g>
  <g id="Layer_2">
    <rect class="cls-4" width="1024" height="820.25"/>
    <g>
      <path class="cls-4" d="M948.83,561.49c-53.75,15.6-75.43,103.68-48.42,196.75,23.31,80.31,75.25,138.08,123.59,142.38v-316.88c-24.38-20.39-50.96-29.27-75.17-22.25Z"/>
      <path class="cls-4" d="M71.07,701.76C56.23,650.62,29.77,608.62.02,583.74v316.88c7.67.68,15.26.03,22.62-2.11,53.75-15.6,75.43-103.68,48.42-196.75Z"/>
    </g>
    <ellipse class="cls-4" cx="320.4" cy="797.15" rx="100.05" ry="94.27" transform="translate(-261.16 164.78) rotate(-20.71)"/>
    <ellipse class="cls-4" cx="608.47" cy="792.8" rx="94.27" ry="100.05" transform="translate(-348.26 1081.64) rotate(-69.29)"/>
    <ellipse class="cls-4" cx="767.67" cy="827.3" rx="88" ry="52.44"/>
    <path class="cls-4" d="M338.23,760.25c-17.21,46.02,39.46,72.64,78.12,124.19,24.89,33.19,123.22,3.54,140.43-42.48,17.21-46.02-17.77-101.62-78.12-124.19-60.35-22.56-123.22-3.54-140.43,42.48Z"/>
    <path class="cls-5" d="M100.72,959.4c36.65,7.34,34.88,39.84,66.84,62.96H22.73c15.26-34.77,39.46-70.67,77.99-62.96Z"/>
    <path class="cls-5" d="M720.63,946.7c13.89,0,32.89,12.13,32.89,27.09,0,14.96-19,27.09-32.89,27.09-13.89,0-17.96-13.97-25.15-27.09-8.53-15.55,11.26-27.09,25.15-27.09Z"/>
    <path class="cls-5" d="M877.58,979.49c16.8-10.52,27.06,28.17,47.25,44.51h-102.39c10.79-24.58,31.59-29.76,55.13-44.51Z"/>
    <circle class="cls-5" cx="413.98" cy="983.56" r="17.32"/>
    <path class="cls-4" d="M180.35,732.51c47.83,21.06,88.09,110.22,50.65,119.81-51.55,13.21-74.74,64.61-122.57,43.56-47.83-21.06-70.51-74.7-50.65-119.81,19.86-45.11,74.74-64.61,122.57-43.56Z"/>
    <path class="cls-4" d="M874.15,728.16c-47.83,21.06-88.09,110.22-50.65,119.81,51.55,13.21,74.74,64.61,122.57,43.56,47.83-21.06,41.72-71.34,50.65-119.81,7.19-39.05-74.74-64.61-122.57-43.56Z"/>
  </g>
  <g id="Layer_7">
    <path class="cls-3" d="M185.12,214.27c-7.51,26.1-67.62,8.65-60.11-17.46s71.09-62.71,93.58-56.24-25.95,47.59-33.47,73.69Z"/>
    <path class="cls-3" d="M165.23,202.81c3.88,26.89-48.7,34.47-52.58,7.59-3.88-26.89-1.41-93.05,13.11-95.14s35.6,60.67,39.48,87.56Z"/>
    <path class="cls-3" d="M732.5,616.88c12.83,44.56,115.44,14.76,102.61-29.8-12.83-44.56-121.36-107.05-159.75-96-38.39,11.05,44.31,81.24,57.13,125.8Z"/>
    <path class="cls-3" d="M758.42,595.31c-5.96,41.32,74.86,52.99,80.82,11.66,5.96-41.32,2.17-143.02-20.15-146.24-22.32-3.22-54.71,93.25-60.68,134.58Z"/>
    <path class="cls-3" d="M143,696.41c3.85,26.69-48.35,34.23-52.2,7.53-3.85-26.69-1.4-92.38,13.01-94.46,14.42-2.08,35.34,60.23,39.19,86.92Z"/>
    <path class="cls-3" d="M142.56,715.02c-28.96,25.64-63.92-13.85-34.96-39.49,28.96-25.64,106.23-78.28,115.88-67.37,9.66,10.91-51.96,81.22-80.92,106.86Z"/>
    <path class="cls-3" d="M511.87,385.66c-4.63,32.11,58.17,41.18,62.81,9.06,4.63-32.11,1.69-111.14-15.66-113.64-17.34-2.5-42.52,72.46-47.15,104.57Z"/>
    <path class="cls-3" d="M472.66,387.09c14.52,44.21,74.81,24.4,60.29-19.81-14.52-44.21-62.85-145.78-79.49-140.31-16.65,5.47,4.68,115.9,19.21,160.11Z"/>
    <path class="cls-3" d="M849.13,287c7.51,26.1,67.62,8.65,60.11-17.46-7.51-26.1-71.09-62.71-93.58-56.24s25.95,47.59,33.47,73.69Z"/>
    <path class="cls-3" d="M869.02,275.55c-3.88,26.89,48.7,34.47,52.58,7.59,3.88-26.89,1.41-93.05-13.11-95.14s-35.6,60.67-39.48,87.56Z"/>
  </g>
</svg>