<?xml version="1.0" encoding="UTF-8"?>
<svg xmlns="http://www.w3.org/2000/svg" viewBox="0 0 1024 1024">
  <defs>
    <style>
      .cls-1, .cls-2 {
        fill: #f6af90;
      }

      .cls-3 {
        fill: #444;
      }

      .cls-2 {
        opacity: .99;
      }

      .cls-4 {
        fill: #f8bd9c;
      }

      .cls-5 {
        fill: #a4a3a3;
      }

      .cls-6 {
        fill: #ffcd2e;
      }

      .cls-7 {
        fill: #e34647;
      }

      .cls-8 {
        fill: #634020;
      }

      .cls-9 {
        fill: #a5a4a4;
      }

      .cls-10 {
        fill: #f4f4f4;
      }

      .cls-11 {
        fill: #528cb2;
      }
    </style>
  </defs>
  <g id="Lag_12" data-name="Lag 12">
    <path class="cls-1" d="M245.95,846.31h221.26v83.3c0,17.54-14.24,31.78-31.78,31.78h-157.71c-17.54,0-31.78-14.24-31.78-31.78v-83.3h0Z" transform="translate(237.62 -60.48) rotate(14.5)"/>
    <path class="cls-8" d="M236.21,922.83h221.26v5.55c0,17.54-14.24,31.78-31.78,31.78h-157.71c-17.54,0-31.78-14.24-31.78-31.78v-5.55h0Z" transform="translate(246.73 -56.85) rotate(14.5)"/>
    <rect class="cls-8" x="311.3" y="833.66" width="22.13" height="93.67" transform="translate(663.26 7.01) rotate(41.43)"/>
    <rect class="cls-8" x="376.96" y="859.55" width="22.12" height="93.67" transform="translate(962.09 1707.97) rotate(167.57)"/>
    <path class="cls-1" d="M601.59,900.38h221.26v83.3c0,17.54-14.24,31.78-31.78,31.78h-157.71c-17.54,0-31.78-14.24-31.78-31.78v-83.3h0Z"/>
    <path class="cls-8" d="M601.59,978.14h221.26v5.55c0,17.54-14.24,31.78-31.78,31.78h-157.71c-17.54,0-31.78-14.24-31.78-31.78v-5.55h0Z"/>
    <rect class="cls-8" x="662.19" y="897.04" width="22.13" height="93.67" transform="translate(500.5 -202.57) rotate(26.93)"/>
    <rect class="cls-8" x="732.24" y="905.67" width="22.13" height="93.67" transform="translate(1837.39 1465.07) rotate(153.07)"/>
  </g>
  <g id="Lag_7" data-name="Lag 7">
    <rect class="cls-2" x="203.14" y="193.82" width="728.89" height="665.18" rx="123.29" ry="123.29"/>
    <path class="cls-11" d="M932.04,865.77l-114.8,39.78c-161.25,55.88-338.05,55.88-499.3,0l-114.8-39.78V141.15l728.89,384.48v340.15Z"/>
  </g>
  <g id="Lag_13" data-name="Lag 13">
    <polygon class="cls-6" points="203.14 381.69 932.04 639.78 932.04 525.62 203.14 141.15 203.14 381.69"/>
  </g>
  <g id="Lag_14" data-name="Lag 14">
    <rect class="cls-7" x="106.95" width="491.01" height="275.33" rx="91.76" ry="91.76"/>
  </g>
  <g id="Lag_2" data-name="Lag 2">
    <path class="cls-9" d="M99.79,172.43h504.24c18.16,0,32.91,14.74,32.91,32.91v249.72c0,99.03-80.4,179.44-179.44,179.44h-211.18c-99.03,0-179.44-80.4-179.44-179.44v-249.72c0-18.16,14.74-32.91,32.91-32.91Z"/>
    <path class="cls-4" d="M524.67,184.73c-.07-53.11-38.61-96.12-86.13-96.12h-247.54c-47.52,0-86.06,43.01-86.13,96.12l-.2,161.3c-.04,35.56,17.46,68.26,45.53,85.02l19.05,11.38c13.05,7.79,24.08,19.21,32.03,33.15l7.41,12.99c15.82,27.73,43.2,44.52,72.63,44.52h66.91c29.43,0,80.04-57.51,80.04-57.51,7.95-13.94,18.98-25.36,32.03-33.15l19.05-11.38c28.07-16.77,45.57-49.46,45.53-85.02l-.2-161.3Z"/>
  </g>
  <g id="Lag_6" data-name="Lag 6">
    <ellipse class="cls-3" cx="185.96" cy="289.74" rx="30.39" ry="37.69"/>
    <ellipse class="cls-3" cx="328.71" cy="290.87" rx="30.39" ry="37.69"/>
    <rect class="cls-10" x="297.09" y="193.82" width="121.55" height="50.05" rx="19.73" ry="19.73"/>
    <rect class="cls-10" x="151.28" y="193.24" width="73.04" height="50.05" rx="19.73" ry="19.73"/>
  </g>
  <g id="Lag_3" data-name="Lag 3">
    <ellipse class="cls-5" cx="279.5" cy="99.34" rx="34.69" ry="33"/>
    <ellipse class="cls-5" cx="235.51" cy="99.9" rx="21.63" ry="20.57"/>
  </g>
  <g id="Lag_15" data-name="Lag 15">
    <rect class="cls-4" x="742.85" y="251.7" width="148.5" height="337.62" rx="74.25" ry="74.25" transform="translate(1731.97 333.96) rotate(147.36)"/>
    <path class="cls-4" d="M690.07,527.34l39.3-3.44c2.55-.22,5.04-.18,7.42.11l59.95-62.75c32.24-33.75,82.42-38.14,112.07-9.81h0c29.65,28.33,27.55,78.65-4.7,112.4l-106.6,111.57c-32.24,33.75-82.42,38.14-112.07,9.81h0c-22.6-21.6-26.73-55.97-13.14-86.04-12.67-4.58-21.14-16.73-20.51-31.79h0c.85-20.34,17.98-38.28,38.27-40.05Z"/>
    <rect class="cls-9" x="705.5" y="617.67" width="90.89" height="11.11" rx="5.56" ry="5.56" transform="translate(863.36 1592.6) rotate(-136.3)"/>
    <rect class="cls-9" x="723.55" y="598.77" width="90.89" height="11.11" rx="5.56" ry="5.56" transform="translate(907.51 1572.51) rotate(-136.3)"/>
    <rect class="cls-9" x="741.61" y="579.88" width="90.89" height="11.11" rx="5.56" ry="5.56" transform="translate(951.67 1552.43) rotate(-136.3)"/>
  </g>
  <g id="Lag_17" data-name="Lag 17">
    <path class="cls-10" d="M465.49,488.26l-13.38,24.1c-11.13,20.05-37.24,27.72-58.32,17.13l-135.27-74.87c-21.08-10.59-29.14-35.43-18.01-55.49l13.38-24.1c11.13-20.05,37.24-27.72,58.32-17.13l135.27,74.87c21.08,10.59,29.14,35.43,18.01,55.49Z"/>
    <path class="cls-10" d="M97.73,466l13.38,24.1c11.13,20.05,37.24,27.72,58.32,17.13l90.43-52.61c21.08-10.59,29.14-35.43,18.01-55.49l-13.38-24.1c-11.13-20.05-37.24-27.72-58.32-17.13l-90.43,52.61c-21.08,10.59-29.14,35.43-18.01,55.49Z"/>
  </g>
</svg>