<?xml version="1.0" encoding="UTF-8"?>
<svg xmlns="http://www.w3.org/2000/svg" viewBox="0 0 1024 1024">
  <defs>
    <style>
      .cls-1 {
        fill: #545554;
      }

      .cls-2 {
        fill: #bba96b;
      }

      .cls-3 {
        fill: #599a43;
      }

      .cls-4 {
        fill: #ab996b;
      }

      .cls-5 {
        fill: #40403f;
      }

      .cls-6 {
        fill: #5da144;
      }

      .cls-7 {
        fill: #ceb874;
      }
    </style>
  </defs>
  <g id="Layer_3">
    <rect class="cls-6" width="1024" height="1024"/>
  </g>
  <g id="Layer_2">
    <rect class="cls-7" x="108.78" y="119.69" width="795.53" height="784.62"/>
  </g>
  <g id="Layer_10">
    <path class="cls-2" d="M650.48,335.07c0,32.38,56.89,37.33,94.7,56.81,28.78,14.83,58.63-26.25,58.63-58.63s-42.73-78.19-75.11-78.19-78.22,47.62-78.22,80Z"/>
    <path class="cls-2" d="M749.75,416.39c0,10.88-8.82,19.71-19.71,19.71s-35.93-25.27-35.93-36.15,23.12,6.89,34,6.89,21.64-1.33,21.64,9.56Z"/>
    <path class="cls-2" d="M336.57,736.98c0,25.37-46.96,46.31-68.52,32.94-22.06-13.68-62.83-4.89-62.83-30.25s37.46-61.6,62.83-61.6,68.52,33.55,68.52,58.92Z"/>
    <path class="cls-2" d="M270.9,432.97c-40.36,41.58,53.72,132.06,104.93,104.93,48.88-25.9,113.1-29.72,113.1-87.67s-84.72-157.63-142.67-157.63-38.52,102.42-75.36,140.38Z"/>
    <path class="cls-2" d="M264.47,278.32c13.95,1.12,33.94,21.04,22.52,36-12.41,16.24-11.75,41.56-25.69,40.44-13.95-1.12-26.32-25.74-24.81-44.5s14.04-33.06,27.98-31.93Z"/>
    <path class="cls-4" d="M615.46,658.23c-8.66,10.14,29.32,32.15,42.41,24.15s36.68-15.11,26.43-24.15c-10-8.82-11.83-24.15-26.43-24.15s-31.15,10.96-42.41,24.15Z"/>
  </g>
  <g id="Layer_7">
    <rect class="cls-6" x="193" y="914.39" width="718.22" height="92.24"/>
    <rect class="cls-6" x="17.3" y="796.11" width="33.33" height="62.66"/>
    <rect class="cls-6" x="10.3" y="149.15" width="99.14" height="164.08"/>
    <rect class="cls-6" x="892.7" y="914.39" width="92" height="64.07"/>
    <rect class="cls-6" x="713.74" y="58.33" width="116.15" height="66.96"/>
    <ellipse class="cls-6" cx="848.78" cy="918.67" rx="31.26" ry="19.11"/>
    <ellipse class="cls-6" cx="927.54" cy="787.06" rx="23.83" ry="24.83"/>
  </g>
  <g id="Layer_4">
    <path class="cls-6" d="M185.71,169.75c0,47.13-26.97,74.67-66.37,74.67s-109.04-7.39-109.04-54.52,41.9-113.63,81.3-113.63,94.11,46.35,94.11,93.48Z"/>
    <ellipse class="cls-6" cx="134.18" cy="899.15" rx="87.33" ry="122" transform="translate(-737.34 640.45) rotate(-64.98)"/>
    <path class="cls-6" d="M17.4,286.24c-16.36,35.04-3.47,75.66,28.78,90.71,32.25,15.05,97.2-4.76,113.55-39.8s-22.07-72.05-54.32-87.11c-32.25-15.05-71.66,1.15-88.01,36.2Z"/>
    <path class="cls-6" d="M146.55,702.63c0,74.13-46.44,121.78-83.22,121.78S0,813.8,0,739.67s25.09-105.48,61.87-105.48,84.67-5.68,84.67,68.44Z"/>
    <ellipse class="cls-6" cx="78.39" cy="432.97" rx="63.41" ry="50.37" transform="translate(-205.98 97.2) rotate(-30)"/>
    <path class="cls-6" d="M.49,548.72c0,54.4,29.81,98.5,66.58,98.5s89.7-35.82,89.7-90.22-52.93-106.78-89.7-106.78S.49,494.32.49,548.72Z"/>
    <path class="cls-6" d="M837.57,863.7c0-47.13,26.97-74.67,66.37-74.67,39.4,0,109.04,7.39,109.04,54.52s-41.9,113.63-81.3,113.63-94.11-46.35-94.11-93.48Z"/>
    <g>
      <ellipse class="cls-6" cx="889.1" cy="134.3" rx="87.33" ry="122" transform="translate(391.37 883.17) rotate(-64.98)"/>
      <path class="cls-6" d="M1005.88,747.21c16.36-35.04,3.47-75.66-28.78-90.71-32.25-15.05-97.2,4.76-113.55,39.8-16.36,35.04,22.07,72.05,54.32,87.11,32.25,15.05,71.66-1.15,88.01-36.2Z"/>
      <path class="cls-6" d="M876.73,330.82c0-74.13,46.66-121.78,83.63-121.78s63.63,10.61,63.63,84.74c0,74.13-25.21,105.48-62.18,105.48s-85.09,5.68-85.09-68.44Z"/>
      <ellipse class="cls-6" cx="944.88" cy="600.48" rx="63.41" ry="50.37" transform="translate(-173.65 552.89) rotate(-30)"/>
      <path class="cls-6" d="M1024,484.73c0-54.4-30.04-98.5-67.1-98.5s-90.39,35.82-90.39,90.22,53.34,106.78,90.39,106.78,67.1-44.1,67.1-98.5Z"/>
    </g>
    <ellipse class="cls-6" cx="322.04" cy="914.62" rx="66.67" ry="48.44"/>
    <path class="cls-6" d="M392.7,912.36c19.68-26.04,79.88-54.01,101.42-37.73,21.54,16.28,23.04,50.59,3.36,76.64-19.68,26.04-53.1,33.96-74.64,17.68s-49.82-30.54-30.14-56.59Z"/>
    <ellipse class="cls-6" cx="606.48" cy="921.8" rx="90.22" ry="57.87"/>
    <path class="cls-6" d="M691.22,936.22c11.65,29.75,70.27,49.92,97.01,39.45,26.74-10.47,73.64-35.72,61.99-65.47-11.65-29.75-77.44-52.74-104.18-42.26-26.74,10.47-66.47,38.54-54.82,68.29Z"/>
    <path class="cls-6" d="M307.25,126.87c0,26.76-29.85,48.44-66.67,48.44s-79.43-33.04-79.43-59.79,42.61-37.1,79.43-37.1,66.67,21.69,66.67,48.44Z"/>
    <path class="cls-6" d="M311.25,129.12c19.68,26.04,79.88,54.01,101.42,37.73,21.54-16.28,23.04-50.59,3.36-76.64s-53.1-33.96-74.64-17.68-49.82,30.54-30.14,56.59Z"/>
    <ellipse class="cls-6" cx="525.02" cy="119.69" rx="90.22" ry="57.87"/>
    <path class="cls-6" d="M609.77,105.27c11.65-29.75,70.27-49.92,97.01-39.45,26.74,10.47,73.64,35.72,61.99,65.47-11.65,29.75-77.44,52.74-104.18,42.26-26.74-10.47-66.47-38.54-54.82-68.29Z"/>
    <rect class="cls-6" x="966.19" y="140.11" width="48.66" height="114.96"/>
    <rect class="cls-6" x="392.41" y="90.33" width="64.59" height="48" transform="translate(-12.88 158.68) rotate(-20.85)"/>
  </g>
  <g id="Layer_14">
    <path class="cls-3" d="M955.64,969.66c-8.8,30.58-79.23,10.13-70.42-20.45,8.8-30.58,83.29-73.47,109.64-65.89s-30.41,55.75-39.21,86.34h-.01Z"/>
    <path class="cls-3" d="M937.85,954.86c4.09,28.36-51.38,36.37-55.47,8.01-4.09-28.36-1.49-98.15,13.83-100.36,15.32-2.21,37.55,64,41.64,92.36h0Z"/>
    <path class="cls-3" d="M95.01,967.84c-8.8-30.59-65.56-78.76-39.21-86.34,26.35-7.58,100.84,35.31,109.64,65.89,8.81,30.58-61.62,51.03-70.42,20.45h-.01Z"/>
    <path class="cls-3" d="M112.81,953.05c4.09-28.36,26.32-94.57,41.64-92.36,15.32,2.21,17.92,72,13.83,100.36-4.09,28.36-59.56,20.35-55.47-8.01h0Z"/>
    <path class="cls-3" d="M896.82,136.34c-3.44,23.8,43.12,30.52,46.56,6.72,3.44-23.8,1.25-82.38-11.61-84.24s-31.51,53.71-34.95,77.52Z"/>
    <path class="cls-3" d="M897.21,152.93c25.83,22.87,57.01-12.35,31.18-35.22s-94.73-69.81-103.34-60.08,46.33,72.43,72.16,95.3Z"/>
  </g>
  <g id="Layer_18">
    <path class="cls-5" d="M343.24,364.27l34.24,3.76c19.19-19.19,50.29-19.19,69.48,0l261.48,223.55c19.19,19.19,14.44,83.47-4.75,102.66l-30.99,30.99c-19.19,19.19-50.29,19.19-69.48,0l-256.74-256.74c-19.19-19.19-22.43-85.05-3.25-104.23Z"/>
    <path class="cls-5" d="M377.21,725.51l-30.99-30.99c-19.19-19.19-23.37-83.86-4.19-103.04l260.93-223.17c19.19-19.19,50.29-19.19,69.48,0l34.57-1.52c19.19,19.19,15.61,82.81-3.58,101.99l-256.74,256.74c-19.19,19.19-50.29,19.19-69.48,0Z"/>
    <rect class="cls-1" x="453.91" y="277.73" width="142.09" height="461.34" rx="49.13" ry="49.13" transform="translate(513.25 -222.29) rotate(45)"/>
    <rect class="cls-1" x="454.18" y="277.46" width="142.09" height="461.34" rx="49.13" ry="49.13" transform="translate(1255.92 496.04) rotate(135)"/>
  </g>
</svg>