<?xml version="1.0" encoding="UTF-8"?>
<svg xmlns="http://www.w3.org/2000/svg" viewBox="0 0 1024 3068.77">
  <defs>
    <style>
      .cls-1 {
        fill: #c5c2c2;
      }

      .cls-2 {
        fill: #6b695e;
      }

      .cls-3, .cls-4 {
        fill: #727372;
      }

      .cls-5 {
        fill: #535454;
      }

      .cls-6 {
        fill: #444;
      }

      .cls-7 {
        fill: #7d7b75;
      }

      .cls-7, .cls-4 {
        stroke: #1d1d1b;
        stroke-miterlimit: 10;
      }

      .cls-8 {
        fill: #9c9b9b;
      }

      .cls-9 {
        fill: #696a6a;
      }

      .cls-10 {
        fill: #68675c;
      }
    </style>
  </defs>
  <g id="Lag_2" data-name="Lag 2">
    <rect class="cls-8" y="2044.77" width="1024" height="1024"/>
    <rect class="cls-3" y="2667.35" width="1024" height="401.28"/>
  </g>
  <g id="Lag_3" data-name="Lag 3">
    <g id="Lag_7" data-name="Lag 7">
      <polygon class="cls-1" points="561.11 0 424.71 70.89 337.11 0 0 0 0 860.79 1024 860.79 1024 0 561.11 0"/>
    </g>
    <path class="cls-8" d="M0,860.79h1024v226.68c0,133.5-108.38,241.88-241.88,241.88H241.88c-133.5,0-241.88-108.38-241.88-241.88v-226.68h0Z"/>
    <rect class="cls-6" x="211.23" y="174.18" width="601.55" height="505.67"/>
    <rect class="cls-4" x="211.23" y="174.18" width="601.55" height="281.6"/>
  </g>
  <g id="Lag_4" data-name="Lag 4">
    <g>
      <polygon class="cls-3" points="162.02 2074.85 512 2074.85 512 1702.1 188.57 1702.1 162.02 2074.85"/>
      <polygon class="cls-3" points="835.59 1702.1 809.11 1329.35 515.45 1329.35 515.45 1702.1 835.59 1702.1"/>
      <polygon class="cls-3" points="515.45 2074.85 515.45 2517.35 893.49 2517.35 862.06 2074.85 515.45 2074.85"/>
    </g>
  </g>
  <g id="Lag_6" data-name="Lag 6">
    <polygon class="cls-9" points="429.94 765.16 277.5 860.79 370.2 1003.1 364.69 860.22 429.94 765.16"/>
    <polygon class="cls-5" points="758.72 2667.35 699.57 2599.85 843.57 2666.32 793.13 2815.47 758.72 2667.35"/>
    <polygon class="cls-7" points="787.81 1865.25 843.14 1808.48 809.11 1329.35 218.11 1329.35 123.05 2517.35 893.49 2517.35 852.84 1944.98 787.81 1865.25"/>
    <g id="Lag_8" data-name="Lag 8">
      <polygon class="cls-2" points="218.11 1329.35 508.27 1329.35 508.27 1940.51 169.21 1940.51 218.11 1329.35"/>
    </g>
    <g id="Lag_9" data-name="Lag 9">
      <polygon class="cls-10" points="508.27 1940.51 849.19 1940.51 852.84 1944.98 893.49 2517.35 508.27 2517.35 508.27 1940.51"/>
    </g>
  </g>
  <g id="Lag_10" data-name="Lag 10">
    <g>
      <path class="cls-6" d="M326.2,2779.65h69.32v31.33l-27,78.65,32.66,95.65v27.66h-72.99l-17.33-90.32h-6l-17.33,90.32h-72.99v-27.66l32.66-95.65-26.99-78.65v-31.33h69.32l15.33,84.65h6l15.33-84.65Z"/>
      <path class="cls-6" d="M582.48,2832.31v46.99h-164.63v-46.99h164.63ZM582.48,2913.62v47.32h-164.63v-47.32h164.63Z"/>
      <path class="cls-6" d="M708.13,2779.65v28.99l-31.33,89.65v12.33h28.66v-42.32h72.99v144.64h-72.99v-43.99h-102.98v-71.32l40.99-117.98h64.65Z"/>
    </g>
  </g>
</svg>