<?xml version="1.0" encoding="UTF-8"?>
<svg id="Lag_5" data-name="Lag 5" xmlns="http://www.w3.org/2000/svg" viewBox="0 0 1024 1024.71">
  <defs>
    <style>
      .cls-1 {
        fill: #545a59;
      }

      .cls-2 {
        fill: #6c797a;
      }

      .cls-3 {
        fill: #fff;
      }

      .cls-4 {
        fill: #696d6d;
      }

      .cls-5 {
        fill: #475151;
      }

      .cls-6 {
        fill: #5d6060;
      }

      .cls-7 {
        fill: #7c8282;
      }
    </style>
  </defs>
  <g>
    <path class="cls-4" d="M882.51,793.8H141.49c-78.14,0-141.49-49.11-141.49-109.68V109.68c0-30.29,34.23-44.7,49.54-70.13S102.42,0,141.49,0l242.74,10.33L882.51,0c39.07,0,62.53,19.69,92.34,35.63,32.63,17.44,49.15,43.77,49.15,74.06v574.44c0,60.58-63.35,109.68-141.49,109.68Z"/>
    <path class="cls-1" d="M882.51,1024.71H141.49c-35.32,0-69.17-23.53-88.86-46.03-26.15-29.88-52.63-52.63-52.63-95.46v-329.58c0-33.83,41.54-45.43,61.35-69.77,25.94-31.89,35.83-71.72,80.14-71.72l259.05,34.03,481.97-34.03c25.57,0,71.43,26.13,83.06,46.97,27,48.38,58.43,41.95,58.43,94.52v329.58c0,78.14-63.35,141.49-141.49,141.49Z"/>
    <path class="cls-6" d="M721.19,363.06l103.42-7.79c14.76-1.11,25.3-14.21,22.73-28.22l-10.41-56.61c-2.19-11.91-13.21-20.41-25.78-19.88l-90.23,3.79c-12.98.54-23.38,10.54-23.95,23.02l-2.78,60.62c-.66,14.46,11.99,26.22,27,25.09Z"/>
    <path class="cls-7" d="M721.39,337.81l99.44-7.79c14.19-1.11,24.33-14.21,21.85-28.22l-10.01-56.61c-2.1-11.91-12.7-20.41-24.78-19.88l-86.76,3.79c-12.48.54-22.48,10.54-23.03,23.02l-2.68,60.62c-.64,14.46,11.53,26.22,25.96,25.09Z"/>
    <path class="cls-6" d="M372.06,393.82l-212.68-28.12c-18.94-2.5-31.93-19.69-28.61-37.86l23.04-125.73c2.94-16.05,17.76-27.52,34.65-26.81l182.94,7.7c17.45.73,31.42,14.21,32.19,31.04l6.69,146.15c.93,20.26-17.4,36.39-38.24,33.63Z"/>
    <path class="cls-7" d="M371.36,354.67l-205.13-28.12c-18.27-2.5-30.8-19.69-27.59-37.86l22.23-125.73c2.84-16.05,17.13-27.52,33.42-26.81l176.45,7.7c16.83.73,30.31,14.21,31.05,31.04l6.45,146.15c.89,20.26-16.79,36.39-36.88,33.63Z"/>
    <path class="cls-6" d="M553.08,170.12l62.89-6.35c8.29-.84,14.61-8.2,14.61-17v-38.13c0-10.41-8.73-18.39-18.46-16.9l-62.89,9.65c-7.94,1.22-13.83,8.42-13.83,16.9v34.83c0,10.07,8.2,17.96,17.68,17Z"/>
    <path class="cls-7" d="M553.08,144.44l62.89-6c8.29-.79,14.61-7.75,14.61-16.07v-36.05c0-9.84-8.73-17.39-18.46-15.98l-62.89,9.12c-7.94,1.15-13.83,7.96-13.83,15.98v32.93c0,9.52,8.2,16.98,17.68,16.07Z"/>
    <rect class="cls-5" x="825.78" y="734.02" width="145.13" height="119.31" rx="39.37" ry="39.37"/>
    <rect class="cls-2" x="825.78" y="774.54" width="145.13" height="119.31" rx="39.37" ry="39.37"/>
    <rect class="cls-5" x="674.83" y="893.85" width="80.03" height="69.66" rx="26.24" ry="26.24"/>
    <rect class="cls-2" x="674.83" y="923.01" width="80.03" height="65.79" rx="26.24" ry="26.24"/>
  </g>
  <g>
    <path class="cls-3" d="M323.28,885.23v-229.95c-7.32,3.95-14.34,6.99-21.08,9.13-6.73,2.14-13.37,3.45-19.91,3.95v-89.31c13.17-3.78,24.37-9.78,33.59-18.01,9.22-8.22,16.61-18.75,22.17-31.58h60.16v355.78h-74.94Z"/>
    <path class="cls-3" d="M503.74,767.05h88.4c.78,11.35,4.95,19.82,12.51,25.41,7.56,5.59,18.71,8.39,33.44,8.39s25.51-3.33,32.93-9.99c7.41-6.66,11.12-16.65,11.12-29.98s-3.86-24.18-11.56-31.09c-7.71-6.91-19.32-10.36-34.83-10.36-7.32,0-14.2.99-20.64,2.96-6.44,1.97-12.59,4.85-18.44,8.64h-82.99l21.22-201.57h222.18v85.86h-168.17l-4.24,39.48c9.27-4.77,19.2-8.3,29.78-10.61,10.59-2.3,22.27-3.45,35.05-3.45,39.23,0,69.06,10.36,89.5,31.09,20.44,20.72,30.66,50.91,30.66,90.55,0,43.1-11.37,75.79-34.1,98.07-22.74,22.29-56.01,33.43-99.82,33.43s-79.06-9.99-99.6-29.98c-20.54-19.98-31.35-52.26-32.42-96.84Z"/>
  </g>
</svg>