<?xml version="1.0" encoding="UTF-8"?>
<svg id="Lag_5" data-name="Lag 5" xmlns="http://www.w3.org/2000/svg" viewBox="0 0 1024 1024">
  <defs>
    <style>
      .cls-1 {
        fill: #f6f6f6;
      }

      .cls-2 {
        fill: #545a59;
      }

      .cls-3 {
        fill: #6c797a;
      }

      .cls-4 {
        fill: #696d6d;
      }

      .cls-5 {
        fill: #475151;
      }

      .cls-6 {
        fill: #5d6060;
      }

      .cls-7 {
        fill: #7c8282;
      }
    </style>
  </defs>
  <path class="cls-4" d="M882.51,793.8H141.49c-78.14,0-141.49-49.11-141.49-109.68V109.68c0-30.29,34.23-44.7,49.54-70.13S102.42,0,141.49,0l242.74,10.33L882.51,0c39.07,0,62.53,19.69,92.34,35.63,32.63,17.44,49.15,43.77,49.15,74.06v574.44c0,60.58-63.35,109.68-141.49,109.68Z"/>
  <path class="cls-2" d="M882.51,1024.71H141.49c-35.32,0-69.17-23.53-88.86-46.03-26.15-29.88-52.63-52.63-52.63-95.46v-329.58c0-33.83,41.54-45.43,61.35-69.77,25.94-31.89,35.83-71.72,80.14-71.72l259.05,34.03,481.97-34.03c25.57,0,71.43,26.13,83.06,46.97,27,48.38,58.43,41.95,58.43,94.52v329.58c0,78.14-63.35,141.49-141.49,141.49Z"/>
  <path class="cls-6" d="M721.19,363.06l103.42-7.79c14.76-1.11,25.3-14.21,22.73-28.22l-10.41-56.61c-2.19-11.91-13.21-20.41-25.78-19.88l-90.23,3.79c-12.98.54-23.38,10.54-23.95,23.02l-2.78,60.62c-.66,14.46,11.99,26.22,27,25.09Z"/>
  <path class="cls-7" d="M721.39,337.81l99.44-7.79c14.19-1.11,24.33-14.21,21.85-28.22l-10.01-56.61c-2.1-11.91-12.7-20.41-24.78-19.88l-86.76,3.79c-12.48.54-22.48,10.54-23.03,23.02l-2.68,60.62c-.64,14.46,11.53,26.22,25.96,25.09Z"/>
  <path class="cls-6" d="M372.06,393.82l-212.68-28.12c-18.94-2.5-31.93-19.69-28.61-37.86l23.04-125.73c2.94-16.05,17.76-27.52,34.65-26.81l182.94,7.7c17.45.73,31.42,14.21,32.19,31.04l6.69,146.15c.93,20.26-17.4,36.39-38.24,33.63Z"/>
  <path class="cls-7" d="M371.36,354.67l-205.13-28.12c-18.27-2.5-30.8-19.69-27.59-37.86l22.23-125.73c2.84-16.05,17.13-27.52,33.42-26.81l176.45,7.7c16.83.73,30.31,14.21,31.05,31.04l6.45,146.15c.89,20.26-16.79,36.39-36.88,33.63Z"/>
  <path class="cls-6" d="M553.08,170.12l62.89-6.35c8.29-.84,14.61-8.2,14.61-17v-38.13c0-10.41-8.73-18.39-18.46-16.9l-62.89,9.65c-7.94,1.22-13.83,8.42-13.83,16.9v34.83c0,10.07,8.2,17.96,17.68,17Z"/>
  <path class="cls-7" d="M553.08,144.44l62.89-6c8.29-.79,14.61-7.75,14.61-16.07v-36.05c0-9.84-8.73-17.39-18.46-15.98l-62.89,9.12c-7.94,1.15-13.83,7.96-13.83,15.98v32.93c0,9.52,8.2,16.98,17.68,16.07Z"/>
  <rect class="cls-5" x="825.78" y="734.02" width="145.13" height="119.31" rx="39.37" ry="39.37"/>
  <rect class="cls-3" x="825.78" y="774.54" width="145.13" height="119.31" rx="39.37" ry="39.37"/>
  <rect class="cls-5" x="674.83" y="893.85" width="80.03" height="69.66" rx="26.24" ry="26.24"/>
  <rect class="cls-3" x="674.83" y="923.01" width="80.03" height="65.79" rx="26.24" ry="26.24"/>
  <path class="cls-1" d="M403.02,723.05c-7.81-6.08-13.56-14.43-17.27-25.04-3.71-10.61-5.56-24.14-5.56-40.59,0-37.34,10.41-64.97,31.25-82.9,20.83-17.93,53.1-26.89,96.82-26.89s75.84,8.97,96.67,26.89c20.83,17.93,31.25,45.56,31.25,82.9,0,16.45-1.83,29.98-5.49,40.59-3.66,10.61-9.39,18.96-17.2,25.04,8.49,7.24,14.81,17.07,18.96,29.48,4.15,12.42,6.22,27.68,6.22,45.77,0,42.27-10.44,73.24-31.32,92.89-20.88,19.66-53.91,29.48-99.09,29.48s-78.21-9.83-99.09-29.48c-20.88-19.65-31.32-50.62-31.32-92.89,0-18.09,2.07-33.35,6.22-45.77,4.15-12.42,10.46-22.24,18.95-29.48ZM464.2,799.78c0,10.69,3.34,18.34,10.03,22.95,6.68,4.61,18.03,6.91,34.03,6.91s27.34-2.3,34.03-6.91c6.68-4.6,10.03-12.25,10.03-22.95s-3.39-18.09-10.17-22.7c-6.78-4.6-18.08-6.91-33.88-6.91s-27.1,2.31-33.88,6.91c-6.78,4.61-10.17,12.17-10.17,22.7ZM466.84,661.86c0,9.21,3.15,15.83,9.44,19.86,6.29,4.03,16.95,6.04,31.98,6.04s25.69-2.01,31.98-6.04c6.29-4.03,9.44-10.65,9.44-19.86s-3.15-15.79-9.44-19.74c-6.29-3.95-16.96-5.92-31.98-5.92s-25.69,1.97-31.98,5.92c-6.29,3.95-9.44,10.53-9.44,19.74Z"/>
</svg>