<?xml version="1.0" encoding="UTF-8"?>
<svg xmlns="http://www.w3.org/2000/svg" viewBox="0 0 865.16 1015.46">
  <defs>
    <style>
      .cls-1, .cls-2 {
        fill: #f6af90;
      }

      .cls-3 {
        fill: #444;
      }

      .cls-2 {
        opacity: .99;
      }

      .cls-4 {
        fill: #f8bd9c;
      }

      .cls-5 {
        fill: #a4a3a3;
      }

      .cls-6 {
        fill: #ffcd2e;
      }

      .cls-7 {
        fill: #e34647;
      }

      .cls-8 {
        fill: #634020;
      }

      .cls-9 {
        fill: #a5a4a4;
      }

      .cls-10 {
        fill: #f4f4f4;
      }

      .cls-11 {
        fill: #528cb2;
      }
    </style>
  </defs>
  <g id="Lag_12" data-name="Lag 12">
    <path class="cls-1" d="M444.26,898.75h157.71c17.54,0,31.78,14.24,31.78,31.78v83.3h-221.26v-83.3c0-17.54,14.24-31.78,31.78-31.78Z" transform="translate(1046.23 1912.57) rotate(-180)"/>
    <path class="cls-8" d="M444.26,976.5h157.71c17.54,0,31.78,14.24,31.78,31.78v5.55h-221.26v-5.55c0-17.54,14.24-31.78,31.78-31.78Z" transform="translate(1046.23 1990.33) rotate(-180)"/>
    <rect class="cls-8" x="551.02" y="895.4" width="22.12" height="93.67" transform="translate(1489.96 1527.73) rotate(153.07)"/>
    <rect class="cls-8" x="480.97" y="904.03" width="22.12" height="93.67" transform="translate(484.01 -119.73) rotate(26.93)"/>
    <path class="cls-1" d="M140.96,900.38h157.71c17.54,0,31.78,14.24,31.78,31.78v83.3H109.18v-83.3c0-17.54,14.24-31.78,31.78-31.78Z" transform="translate(439.62 1915.85) rotate(-180)"/>
    <path class="cls-8" d="M140.96,978.14h157.71c17.54,0,31.78,14.24,31.78,31.78v5.55H109.18v-5.55c0-17.54,14.24-31.78,31.78-31.78Z" transform="translate(439.62 1993.6) rotate(-180)"/>
    <rect class="cls-8" x="247.72" y="897.04" width="22.13" height="93.67" transform="translate(916.99 1668.19) rotate(153.07)"/>
    <rect class="cls-8" x="177.67" y="905.67" width="22.13" height="93.67" transform="translate(451.86 17.81) rotate(26.93)"/>
  </g>
  <g id="Lag_7" data-name="Lag 7">
    <rect class="cls-2" x="0" y="193.82" width="728.89" height="665.18" rx="123.29" ry="123.29" transform="translate(728.89 1052.82) rotate(-180)"/>
    <path class="cls-11" d="M0,865.77l114.8,39.78c161.25,55.88,338.05,55.88,499.3,0l114.8-39.78V141.15S0,525.62,0,525.62v340.15Z"/>
  </g>
  <g id="Lag_13" data-name="Lag 13">
    <polygon class="cls-6" points="728.89 381.69 0 639.78 0 525.62 728.89 141.15 728.89 381.69"/>
  </g>
  <g id="Lag_14" data-name="Lag 14">
    <rect class="cls-7" x="334.07" y="0" width="491.01" height="275.33" rx="91.76" ry="91.76" transform="translate(1159.16 275.33) rotate(-180)"/>
  </g>
  <g id="Lag_2" data-name="Lag 2">
    <path class="cls-9" d="M474.54,172.43h211.18c99.03,0,179.44,80.4,179.44,179.44v249.72c0,18.16-14.74,32.91-32.91,32.91h-504.24c-18.16,0-32.91-14.74-32.91-32.91v-249.72c0-99.03,80.4-179.44,179.44-179.44Z" transform="translate(1160.26 806.91) rotate(-180)"/>
    <path class="cls-4" d="M334,184.73c.08-53.11,45.35-96.12,101.17-96.12h119.72s51.34,0,51.34,0h119.72c55.82,0,101.09,43.01,101.17,96.12l.24,161.3c.05,35.56-20.51,68.26-53.48,85.02l-22.38,11.38c-15.33,7.79-28.28,19.21-37.62,33.15l-8.7,12.99c-18.58,27.73-50.75,44.52-85.32,44.52h-13.16s-52.28,0-52.28,0h-13.16c-34.57,0-66.74-16.79-85.32-44.52l-8.7-12.99c-9.34-13.94-22.3-25.36-37.62-33.15l-22.38-11.38c-32.97-16.77-53.53-49.46-53.48-85.02l.24-161.3Z"/>
  </g>
  <g id="Lag_5" data-name="Lag 5">
    <path class="cls-10" d="M795.65,476.75l-13.38,24.1c-11.13,20.05-37.24,27.72-58.32,17.13l-146.69-73.71c-21.08-10.59-29.14-35.43-18.01-55.49l13.38-24.1c11.13-20.05,37.24-27.72,58.32-17.13l146.69,73.71c21.08,10.59,29.14,35.43,18.01,55.49Z"/>
    <path class="cls-10" d="M365.48,476.75l13.38,24.1c11.13,20.05,37.24,27.72,58.32,17.13l146.69-73.71c21.08-10.59,29.14-35.43,18.01-55.49l-13.38-24.1c-11.13-20.05-37.24-27.72-58.32-17.13l-146.69,73.71c-21.08,10.59-29.14,35.43-18.01,55.49Z"/>
  </g>
  <g id="Lag_6" data-name="Lag 6">
    <ellipse class="cls-3" cx="670.54" cy="290.32" rx="30.39" ry="37.69"/>
    <ellipse class="cls-3" cx="504.81" cy="290.87" rx="30.39" ry="37.69"/>
    <rect class="cls-10" x="414.93" y="184.24" width="137.51" height="50.05" rx="19.73" ry="19.73" transform="translate(967.37 418.53) rotate(-180)"/>
    <rect class="cls-10" x="618.57" y="184.24" width="137.51" height="50.05" rx="19.73" ry="19.73" transform="translate(1374.66 418.53) rotate(-180)"/>
  </g>
  <g id="Lag_3" data-name="Lag 3">
    <ellipse class="cls-5" cx="554.19" cy="88.61" rx="34.69" ry="33"/>
    <ellipse class="cls-5" cx="598.18" cy="89.16" rx="21.63" ry="20.57"/>
  </g>
  <g id="Lag_15" data-name="Lag 15">
    <rect class="cls-4" x="103.36" y="291.83" width="148.5" height="337.62" rx="74.25" ry="74.25" transform="translate(47.92 -15.71) rotate(5.85)"/>
    <path class="cls-4" d="M273.69,666.63l-26.04-29.64c-1.69-1.93-3.52-3.61-5.44-5.05v-86.79c0-46.68-33.24-84.51-74.25-84.51h0c-41.01,0-74.25,37.84-74.25,84.51v154.31c0,46.68,33.24,84.51,74.25,84.51h0c31.26,0,57.99-22,68.94-53.13,12.33,5.44,26.85,2.51,36.79-8.82h0c13.44-15.3,13.44-40.1,0-55.39Z"/>
    <rect class="cls-9" x="118" y="688.34" width="90.89" height="11.11" rx="5.56" ry="5.56"/>
    <rect class="cls-9" x="118" y="662.21" width="90.89" height="11.11" rx="5.56" ry="5.56"/>
    <rect class="cls-9" x="118" y="636.08" width="90.89" height="11.11" rx="5.56" ry="5.56"/>
  </g>
</svg>