<?xml version="1.0" encoding="UTF-8"?>
<svg id="Lag_1" data-name="Lag 1" xmlns="http://www.w3.org/2000/svg" viewBox="0 0 875.48 1015.47">
  <defs>
    <style>
      .cls-1 {
        isolation: isolate;
        opacity: .99;
      }

      .cls-1, .cls-2 {
        fill: #f6af90;
      }

      .cls-3 {
        fill: #ffcd2e;
      }

      .cls-4 {
        fill: #444;
      }

      .cls-5 {
        fill: #528cb2;
      }

      .cls-6 {
        fill: #f8bd9c;
      }

      .cls-7 {
        fill: #f4f4f4;
      }

      .cls-8 {
        fill: #e34647;
      }

      .cls-9 {
        fill: #634020;
      }

      .cls-10 {
        fill: #a5a4a4;
      }

      .cls-11 {
        fill: #a4a3a3;
      }
    </style>
  </defs>
  <g id="Lag_12" data-name="Lag 12">
    <path class="cls-2" d="M678.54,820.45h0l20.86,80.65c4.39,16.98-5.83,34.33-22.81,38.72l-152.69,39.49c-16.98,4.39-34.33-5.83-38.72-22.81l-20.86-80.65,214.21-55.4h0Z"/>
    <path class="cls-9" d="M698.02,895.73h0l1.39,5.37c4.39,16.98-5.83,34.33-22.81,38.72l-152.69,39.49c-16.98,4.39-34.33-5.83-38.72-22.81l-1.39-5.37,214.21-55.4h0Z"/>
    <rect class="cls-9" x="573.2" y="869.42" width="93.67" height="22.13" transform="translate(869.91 -167.02) rotate(48.57)"/>
    <rect class="cls-9" x="543.24" y="859.52" width="22.12" height="93.67" transform="translate(900.51 1910.77) rotate(-167.57)"/>
    <path class="cls-2" d="M340.78,900.38h0v83.3c0,17.54-14.24,31.78-31.78,31.78h-157.71c-17.54,0-31.78-14.24-31.78-31.78v-83.3h221.26s.01,0,.01,0Z"/>
    <path class="cls-9" d="M340.78,978.14h0v5.55c0,17.54-14.24,31.78-31.78,31.78h-157.71c-17.54,0-31.78-14.24-31.78-31.78v-5.55h221.26s.01,0,.01,0Z"/>
    <rect class="cls-9" x="222.26" y="932.8" width="93.67" height="22.13" transform="translate(988.74 276.47) rotate(63.07)"/>
    <rect class="cls-9" x="188" y="905.66" width="22.13" height="93.67" transform="translate(-54.84 1891.87) rotate(-153.07)"/>
  </g>
  <g id="Lag_7" data-name="Lag 7">
    <rect class="cls-1" x="10.33" y="193.82" width="728.89" height="665.18" rx="123.29" ry="123.29" transform="translate(749.56 1052.82) rotate(-180)"/>
    <path class="cls-5" d="M10.33,865.78v-340.15S739.22,141.15,739.22,141.15v724.62s-114.8,39.78-114.8,39.78c-161.25,55.88-338.05,55.88-499.3,0l-114.8-39.78h0Z"/>
  </g>
  <g id="Lag_13" data-name="Lag 13">
    <polygon class="cls-3" points="739.22 141.15 10.32 525.62 10.32 639.78 739.22 381.69 739.22 141.15"/>
  </g>
  <g id="Lag_14" data-name="Lag 14">
    <rect class="cls-8" x="344.4" y="0" width="491.01" height="275.33" rx="91.76" ry="91.76" transform="translate(1179.82 275.33) rotate(-180)"/>
  </g>
  <g id="Lag_2" data-name="Lag 2">
    <path class="cls-10" d="M842.57,172.43c18.17,0,32.91,14.75,32.91,32.91v249.72c0,99.04-80.41,179.44-179.44,179.44h-211.18c-99.04,0-179.44-80.41-179.44-179.44v-249.72c0-18.17,14.75-32.91,32.91-32.91h504.24s0,0,0,0Z"/>
    <path class="cls-6" d="M417.68,184.73l-.2,161.3c-.04,35.56,17.46,68.25,45.53,85.02l19.05,11.38c13.05,7.79,24.08,19.21,32.03,33.15,0,0,50.61,57.51,80.04,57.51h66.91c29.43,0,56.81-16.79,72.63-44.52l7.41-12.99c7.95-13.94,18.98-25.36,32.03-33.15l19.05-11.38c28.07-16.76,45.57-49.46,45.53-85.02l-.2-161.3c-.07-53.11-38.61-96.12-86.13-96.12h-247.54c-47.52,0-86.06,43.01-86.13,96.12h-.01Z"/>
  </g>
  <g id="Lag_6" data-name="Lag 6">
    <ellipse class="cls-4" cx="756.4" cy="289.74" rx="30.39" ry="37.69"/>
    <ellipse class="cls-4" cx="613.65" cy="290.87" rx="30.39" ry="37.69"/>
    <rect class="cls-7" x="523.72" y="193.82" width="121.55" height="50.05" rx="19.73" ry="19.73" transform="translate(1169 437.69) rotate(-180)"/>
    <rect class="cls-7" x="718.04" y="193.24" width="73.04" height="50.05" rx="19.73" ry="19.73" transform="translate(1509.13 436.53) rotate(-180)"/>
  </g>
  <g id="Lag_3" data-name="Lag 3">
    <ellipse class="cls-11" cx="662.86" cy="99.34" rx="34.69" ry="33"/>
    <ellipse class="cls-11" cx="706.85" cy="99.9" rx="21.63" ry="20.57"/>
  </g>
  <g id="Lag_15" data-name="Lag 15">
    <path class="cls-6" d="M11.74,460.15l102-159.25c22.12-34.53,68.04-44.59,102.57-22.48h0c34.53,22.12,44.59,68.04,22.48,102.57l-102,159.25c-22.12,34.53-68.04,44.59-102.57,22.48h0C-.32,540.6-10.38,494.68,11.74,460.15Z"/>
    <path class="cls-6" d="M252.3,527.35c20.29,1.77,37.42,19.71,38.27,40.05h0c.63,15.06-7.84,27.21-20.51,31.79,13.59,30.07,9.46,64.44-13.14,86.04h0c-29.65,28.33-79.83,23.94-112.07-9.81l-106.6-111.57c-32.25-33.75-34.35-84.07-4.7-112.4h0c29.65-28.33,79.83-23.94,112.07,9.81l59.95,62.75c2.38-.29,4.87-.33,7.42-.11l39.3,3.44h.01Z"/>
    <path class="cls-10" d="M158.48,654.61h0c-2.12-2.22-2.04-5.74.18-7.86l57.67-55.11c2.22-2.12,5.74-2.04,7.86.17h0c2.12,2.22,2.04,5.74-.18,7.86l-57.67,55.11c-2.22,2.12-5.74,2.04-7.86-.17Z"/>
    <path class="cls-10" d="M140.44,635.71h0c-2.12-2.22-2.04-5.74.18-7.86l57.67-55.11c2.22-2.12,5.74-2.04,7.86.17h0c2.12,2.22,2.04,5.74-.18,7.86l-57.67,55.11c-2.22,2.12-5.74,2.04-7.86-.17Z"/>
    <path class="cls-10" d="M122.39,616.81h0c-2.12-2.22-2.04-5.74.18-7.86l57.67-55.11c2.22-2.12,5.74-2.04,7.86.17h0c2.12,2.22,2.04,5.74-.18,7.86l-57.67,55.11c-2.22,2.12-5.74,2.04-7.86-.17Z"/>
  </g>
  <g id="Lag_17" data-name="Lag 17">
    <path class="cls-7" d="M476.87,488.26c-11.13-20.06-3.07-44.9,18.01-55.49l135.27-74.87c21.08-10.59,47.19-2.92,58.32,17.13l13.38,24.1c11.13,20.06,3.07,44.9-18.01,55.49l-135.27,74.87c-21.08,10.59-47.19,2.92-58.32-17.13l-13.38-24.1h0Z"/>
    <path class="cls-7" d="M844.63,466c11.13-20.06,3.07-44.9-18.01-55.49l-90.43-52.61c-21.08-10.59-47.19-2.92-58.32,17.13l-13.38,24.1c-11.13,20.06-3.07,44.9,18.01,55.49l90.43,52.61c21.08,10.59,47.19,2.92,58.32-17.13l13.38-24.1h0Z"/>
  </g>
</svg>